<svg version="1.1" xmlns="http://www.w3.org/2000/svg" xmlns:xlink="http://www.w3.org/1999/xlink" width="121.5699" height="33.37539" viewBox="0,0,121.5699,33.37539"><defs><linearGradient x1="179.7646" y1="332.72667" x2="179.7646" y2="303.31232" gradientUnits="userSpaceOnUse" id="color-1"><stop offset="0" stop-color="#c29e29"/><stop offset="1" stop-color="#ffb24d"/></linearGradient></defs><g transform="translate(-119.21505,-303.3123)"><g data-paper-data="{&quot;isPaintingLayer&quot;:true}" fill-rule="nonzero" stroke-linecap="butt" stroke-linejoin="miter" stroke-miterlimit="10" stroke-dasharray="" stroke-dashoffset="0" style="mix-blend-mode: normal"><path d="M237.96004,316.15718c0,5.24691 2.82491,10.36286 2.82491,13.37448c0,3.04448 -2.01251,7.15603 -5.50841,7.15603c-21.19155,0 -96.89096,0 -109.22973,0c-3.31784,0 -6.36093,-3.34907 -6.36093,-7.46002c0,-4.61797 2.8249,-9.2854 2.8249,-12.1586c0,-3.57254 0.34717,-9.79576 4.00686,-9.79576c12.93374,0 87.19559,0 107.58188,0c3.20493,0 3.86056,4.77623 3.86056,8.88385z" data-paper-data="{&quot;index&quot;:null}" fill="#8c6526" stroke="none" stroke-width="0"/><path d="M240.31412,311.58825c0,5.24691 0,10.97078 0,13.98241c0,3.04448 -2.01252,7.15605 -5.50842,7.15605c-21.19155,0 -96.89095,0 -109.22972,0c-3.31784,0 -6.36093,-3.34907 -6.36093,-7.46002c0,-4.61797 0,-10.19729 0,-13.0705c0,-3.57254 3.17209,-8.88389 6.83173,-8.88389c12.93373,0 87.19555,0 107.58188,0c3.20493,0 6.68546,4.16831 6.68546,8.27594z" data-paper-data="{&quot;index&quot;:null}" fill="url(#color-1)" stroke="none" stroke-width="0"/><text transform="translate(143.36531,323.96588) scale(0.41246,0.33049)" font-size="40" xml:space="preserve" fill="#ffffff" fill-rule="nonzero" stroke="#4e4e4e" stroke-width="2.5" stroke-linecap="butt" stroke-linejoin="miter" stroke-miterlimit="10" stroke-dasharray="" stroke-dashoffset="0" font-family="Marker" font-weight="normal" text-anchor="start" style="mix-blend-mode: normal"><tspan x="0" dy="0">SETTINGS</tspan></text></g></g></svg>