<svg version="1.1" xmlns="http://www.w3.org/2000/svg" xmlns:xlink="http://www.w3.org/1999/xlink" width="22.78171" height="49.47308" viewBox="0,0,22.78171,49.47308"><g transform="translate(-166.85272,-269.71806)"><g data-paper-data="{&quot;isPaintingLayer&quot;:true}" fill-rule="nonzero" stroke="none" stroke-linecap="butt" stroke-linejoin="miter" stroke-miterlimit="10" stroke-dasharray="" stroke-dashoffset="0" style="mix-blend-mode: normal"><path d="M168.59936,298.51146c-0.71157,-1.68566 0.77875,-2.49885 0.77875,-2.49885l1.5509,-0.8254c1.57037,-0.56351 3.16672,-1.03373 4.76975,-1.46107c0,0 0.02336,-0.00622 0.0651,-0.01397c0.02515,-1.44586 0.05108,-2.89171 0.07489,-4.33752c-0.78257,-0.0549 -1.53786,-0.29435 -2.14626,-0.77732c-0.8683,-0.68931 -0.34646,-2.37675 -0.42633,-3.57666c-0.05781,-0.86859 0.17875,-5.67313 0.2242,-5.88944c0.33495,-1.59417 0.98813,-3.33328 1.62799,-5.03603c-0.3054,-0.1397 -0.60404,-0.42247 -0.82652,-0.94954c-0.71157,-1.68566 0.77875,-2.49885 0.77875,-2.49885l2.0746,-0.91305c0.09142,0.00147 0.20037,0.00281 0.32377,0.00425c0.15096,-0.02699 0.31755,-0.02812 0.50082,0.006c1.58859,0.02072 4.32314,0.08119 4.75861,0.43273c0.91207,0.73628 1.06711,2.27604 1.2739,3.52476c0.45017,2.7183 -0.67621,4.43326 -1.51632,6.86985c-0.90394,2.6218 -0.64414,2.78461 -2.19263,5.50168c-0.40496,0.71057 -0.71596,1.63177 -1.20254,2.2698c0.06321,0.29307 0.05963,0.51602 0.05963,0.51602c-0.01749,1.08953 -0.07495,2.21908 -0.14186,3.36706c2.34095,0.03758 4.68191,0.07517 7.02285,0.11275l1.98145,0.03181c0,0 1.65121,0.02651 1.62116,1.89788c-0.03004,1.87137 -1.68125,1.84486 -1.68125,1.84486c-2.39146,-0.0384 -6.71509,-0.10781 -9.15492,-0.14698c-0.09289,2.07864 -0.11111,4.14191 0.11973,6.06638c0.11463,0.95555 0.79818,1.85964 0.62234,2.80451c-0.09722,0.52238 -0.29911,1.02634 -0.56487,1.50913c0.64298,0.93266 1.35855,1.82086 1.74507,2.91062c0.29082,0.81991 -0.05189,1.77514 0.03411,2.65425c0.11528,1.17848 0.37843,2.33165 0.56764,3.49746l0.01401,1.92017c0,0 -0.01476,1.87153 -1.66617,1.86235c-1.65142,-0.00918 -1.63666,-1.88072 -1.63666,-1.88072l0.03876,-1.2198c-0.20327,-1.28782 -0.4948,-2.56131 -0.60983,-3.86345c-0.05391,-0.6102 0.314,-1.27148 0.10621,-1.83703c-0.17571,-0.47823 -0.45353,-0.889 -0.75785,-1.28224c-0.15875,0.17117 -0.31288,0.33689 -0.4587,0.49689c-1.9302,2.11803 -4.09528,3.75844 -6.0405,5.89294l-1.83686,0.51876c0,0 -1.65121,-0.02651 -1.62116,-1.89788c0.02869,-1.78682 1.53535,-1.84338 1.67144,-1.84485c1.80916,-1.87955 3.77907,-3.42684 5.5344,-5.353c0.10564,-0.11592 2.17351,-2.27684 2.21575,-2.63299c0.07261,-0.61226 -0.5396,-1.09885 -0.62652,-1.70799c-0.11946,-0.83718 0.0097,-1.69719 0.01955,-2.54574c0.00952,-0.82126 0.02066,-1.64252 0.03288,-2.46379c-1.27179,0.35039 -2.53708,0.73503 -3.78429,1.18439l-1.11507,0.62928c0,0 -1.49033,0.81319 -2.20189,-0.87247zM179.03897,273.14388c-1.06878,3.22354 -2.33875,6.23118 -2.43505,9.71487c-0.0204,0.73812 0.0884,1.48943 -0.03534,2.21495c-0.05994,0.35144 -0.61095,0.58095 -0.49844,0.91462c0.08944,0.26525 0.53647,-0.09956 0.70047,-0.31552c0.32945,-0.43384 0.4634,-1.01672 0.6966,-1.5242c0.4217,-0.91772 0.89553,-1.80694 1.26808,-2.7514c0.69365,-1.75849 1.40417,-3.52183 1.88474,-5.36861c0.1551,-0.596 0.07558,-1.23885 0.10359,-1.85886c0.01486,-0.32897 0.29881,-0.87846 0.02505,-0.98774c-0.54679,-0.21825 -1.1237,-0.15883 -1.70971,-0.03812z" fill="#000000" stroke-width="0.5"/><path d="M180.76555,273.13493c0.27376,0.10928 -0.00772,0.65972 -0.02258,0.98869c-0.02802,0.62001 0.05822,1.26629 -0.09688,1.86228c-0.48058,1.84677 -1.20978,3.70226 -1.90343,5.46075c-0.37255,0.94446 -0.86436,1.83308 -1.28605,2.7508c-0.2332,0.50748 -0.36989,1.08969 -0.69934,1.52353c-0.164,0.21596 -0.61512,0.57944 -0.70456,0.31419c-0.11252,-0.33367 0.43969,-0.56274 0.49963,-0.91419c0.12374,-0.72552 0.00663,-1.48056 0.02703,-2.21868c0.0963,-3.48369 1.39531,-6.58468 2.46409,-9.80822c0.58601,-0.12071 1.17531,-0.1774 1.7221,0.04085z" data-paper-data="{&quot;noHover&quot;:false,&quot;origItem&quot;:[&quot;Path&quot;,{&quot;applyMatrix&quot;:true,&quot;segments&quot;:[[[309.69686,131.88636],[0.584,-0.1301],[-1.01689,3.24028]],[[307.41808,141.63907],[0.04036,-3.48479],[-0.00855,0.73835]],[[307.4183,143.8543],[0.11208,-0.72741],[-0.05429,0.35236]],[[306.93461,144.7768],[-0.11786,-0.33182],[0.09369,0.26378]],[[307.62992,144.45008],[-0.16051,0.21856],[0.32244,-0.43907]],[[308.30196,142.91489],[-0.22502,0.51116],[0.40691,-0.92437]],[[309.52571,140.14349],[-0.35734,0.95032],[0.66533,-1.7694]],[[311.32403,134.74532],[-0.45087,1.85425],[0.14551,-0.59841]],[[311.39777,132.88504],[-0.01806,0.62038],[0.00958,-0.32917]],[[311.40696,131.89703],[0.27548,0.10487],[-0.55022,-0.20944]]],&quot;closed&quot;:true,&quot;fillColor&quot;:[0,0,0],&quot;strokeWidth&quot;:0.5}]}" fill="#ffffff" stroke-width="0.25"/></g></g></svg>