<svg version="1.1" xmlns="http://www.w3.org/2000/svg" xmlns:xlink="http://www.w3.org/1999/xlink" width="308.95584" height="540.19944" viewBox="0,0,308.95584,540.19944"><defs><radialGradient cx="52.16554" cy="534.99846" r="621.80318" gradientUnits="userSpaceOnUse" id="color-1"><stop offset="0" stop-color="#122740"/><stop offset="1" stop-color="#1a1a1a"/></radialGradient></defs><g transform="translate(-23.85817,-171.77429)"><g data-paper-data="{&quot;isPaintingLayer&quot;:true}" fill-rule="nonzero" stroke-linejoin="miter" stroke-miterlimit="10" stroke-dasharray="" stroke-dashoffset="0" style="mix-blend-mode: normal"><path d="M26.63696,711.97374v-353.95054h51.05715v353.95054z" fill="url(#color-1)" stroke="none" stroke-width="0" stroke-linecap="butt"/><g stroke="none" stroke-width="0.5" stroke-linecap="butt"><path d="M71.43561,355.04577c7.6738,0 7.6738,1.45414 7.6738,1.45414c0,2.79211 1.09449,5.34989 -3.46335,8.02139l-9.9872,1.42245c0,0 -0.02627,0.0025 -0.0763,0.00685l-0.99883,0.30242c0,0 -5.42617,1.02823 -10.85241,0c-5.42616,-1.02823 0,-2.05647 0,-2.05647l0.67292,0.36563c0.01221,-0.09937 0.08707,-0.19268 0.20899,-0.27992c0.08579,-0.36772 0.25189,-0.73808 0.54061,-1.10395c-0.623,-0.01432 -1.22293,-0.04281 -1.79058,-0.08368c-1.36089,0.40633 -3.75609,0.67599 -6.48377,0.67599c-0.95961,0 -1.87805,-0.03338 -2.72479,-0.09434c-1.36089,0.40633 -3.75609,0.67599 -6.48377,0.67599c-2.51056,0 -4.73959,-0.22846 -6.13959,-0.58166c-4.23785,-0.00006 -7.67317,-0.65108 -7.67317,-1.45414c0,-0.19389 0,-2.13275 0,-2.32663c0,-0.38777 0,-2.52052 0,-2.90829c0,0 0,-1.45407 7.67318,-1.45414c1.4,-0.3532 3.62902,-0.58166 6.13959,-0.58166c0.95961,0 1.87805,0.03338 2.72479,0.09434c0.67607,-0.20186 1.60746,-0.37 2.70804,-0.4881c0.47235,0.00442 0.94724,0.00665 1.42443,0.00665c3.56103,0 6.99441,-0.12442 10.22102,-0.35522c3.0573,0.21869 6.3003,0.34188 9.66163,0.3542l1.61032,0.61029l-0.2792,0.02645c0.12407,0.03803 0.24595,0.07634 0.36549,0.11496c1.13649,-0.20868 2.82361,-0.36359 5.32816,-0.36359z" fill="#319872"/><path d="M30.05348,361.81927c-6.86362,-0.65032 -3.43185,-1.95094 -3.43185,-1.95094l2.65318,-0.97284c1.02314,-0.58166 2.04633,-1.16331 3.06952,-1.74497c0,0 2.42666,-1.37952 9.70663,-0.91968c7.27998,0.45983 4.85336,1.83937 4.85336,1.83937c-1.02314,0.58166 -2.04633,1.16331 -3.06952,1.74497l-3.48587,1.35379c0,0 -3.43185,1.30062 -10.29548,0.65032z" fill="#3fc493"/><path d="M52.32095,360.25425c0,-0.77555 0,-2.7144 0,-3.48995c0,0 0,-1.45414 7.6738,-1.45414c7.6738,0 7.67381,1.45414 7.67381,1.45414c0,0.3145 0,0.629 0,0.9435c0.02466,-0.11802 0.02533,-0.23855 0,-0.36184c0,0 0,-1.45414 7.6738,-1.45414c7.6738,0 7.6738,1.45414 7.6738,1.45414c-0.34832,2.66866 -6.75321,4.18467 -13.16104,6.49379l-4.43412,0.93267c0,0 -5.42617,1.02823 -10.85241,0c-5.42616,-1.02823 0,-2.05647 0,-2.05647l1.70488,-0.23063c0.76275,-0.27444 1.57035,-0.53715 2.3895,-0.79278c-6.34199,-0.15767 -6.34199,-1.43828 -6.34199,-1.43828z" fill="#3fc493"/></g><text transform="translate(110.13407,218.5364) scale(1.15462,1.15462)" font-size="40" xml:space="preserve" fill="#000000" fill-rule="nonzero" stroke="none" stroke-width="1" stroke-linecap="butt" stroke-linejoin="miter" stroke-miterlimit="10" stroke-dasharray="" stroke-dashoffset="0" font-family="Marker" font-weight="normal" text-anchor="start" style="mix-blend-mode: normal"><tspan x="0" dy="0">Stick king</tspan></text><text transform="translate(85.68822,493.6338) scale(0.28502,0.28502)" font-size="40" xml:space="preserve" fill-opacity="0.24314" fill="#000000" fill-rule="nonzero" stroke="none" stroke-width="1" stroke-linecap="butt" stroke-linejoin="miter" stroke-miterlimit="10" stroke-dasharray="" stroke-dashoffset="0" font-family="Marker" font-weight="normal" text-anchor="start" style="mix-blend-mode: normal"><tspan x="0" dy="0">v 0.1</tspan></text><path d="M123.72442,240.53417c0,0 -15.52833,1.66644 -19.68751,-1.65444c-4.7693,-3.80803 1.97386,-12.67025 6.04494,-12.67025c24.69474,0 168.98448,-2.40325 213.0386,1.89158c5.12848,0.49997 9.06996,9.69314 6.51136,13.73706c-2.27025,3.58816 -10.81872,2.1067 -10.81872,2.1067" fill="none" stroke="#000000" stroke-width="3" stroke-linecap="round"/></g></g></svg>