<svg version="1.1" xmlns="http://www.w3.org/2000/svg" xmlns:xlink="http://www.w3.org/1999/xlink" width="182.69937" height="41.52492" viewBox="0,0,182.69937,41.52492"><defs><linearGradient x1="319.64623" y1="195.83425" x2="319.64623" y2="159.23753" gradientUnits="userSpaceOnUse" id="color-1"><stop offset="0" stop-color="#53f733"/><stop offset="1" stop-color="#8bff4d"/></linearGradient></defs><g transform="translate(-228.65031,-159.23754)"><g data-paper-data="{&quot;isPaintingLayer&quot;:true}" fill-rule="nonzero" stroke-linecap="butt" stroke-linejoin="miter" stroke-miterlimit="10" stroke-dasharray="" stroke-dashoffset="0" style="mix-blend-mode: normal"><path d="M407.10432,175.21885c0,6.52809 4.24536,12.89324 4.24536,16.64024c0,3.78785 -3.02447,8.90336 -8.27823,8.90336c-31.84738,0 -145.61102,0 -164.15417,0c-4.98617,0 -9.55942,-4.16685 -9.55942,-9.28158c0,-5.74558 4.24536,-11.55268 4.24536,-15.12745c0,-4.44487 0.52175,-12.18766 6.02164,-12.18766c19.43726,0 131.04049,0 161.67772,0c4.81647,0 5.80178,5.94247 5.80178,11.05309z" data-paper-data="{&quot;index&quot;:null}" fill="#4ec736" stroke="none" stroke-width="0"/><path d="M410.64213,169.53429c0,6.52809 0,13.6496 0,17.39659c0,3.78785 -3.02447,8.9034 -8.27823,8.9034c-31.84738,0 -145.61102,0 -164.15417,0c-4.98617,0 -9.55942,-4.16685 -9.55942,-9.28158c0,-5.74558 0,-12.68726 0,-16.26204c0,-4.44487 4.76711,-11.05312 10.26695,-11.05312c19.43726,0 131.04046,0 161.67772,0c4.81647,0 10.04715,5.18613 10.04715,10.29675z" data-paper-data="{&quot;index&quot;:null}" fill="url(#color-1)" stroke="none" stroke-width="0"/><text transform="translate(296.45382,183.60008) scale(0.51317,0.41119)" font-size="40" xml:space="preserve" fill="#ffffff" fill-rule="nonzero" stroke="#4e4e4e" stroke-width="2.5" stroke-linecap="butt" stroke-linejoin="miter" stroke-miterlimit="10" stroke-dasharray="" stroke-dashoffset="0" font-family="Marker" font-weight="normal" text-anchor="start" style="mix-blend-mode: normal"><tspan x="0" dy="0">PLAY</tspan></text></g></g></svg>