<svg version="1.1" xmlns="http://www.w3.org/2000/svg" xmlns:xlink="http://www.w3.org/1999/xlink" width="18.02166" height="334.24684" viewBox="0,0,18.02166,334.24684"><defs><radialGradient cx="187.09373" cy="483.48727" r="159.32398" gradientUnits="userSpaceOnUse" id="color-1"><stop offset="0" stop-color="#122740"/><stop offset="1" stop-color="#1a1a1a"/></radialGradient></defs><g transform="translate(-178.93982,-314.61799)"><g data-paper-data="{&quot;isPaintingLayer&quot;:true}" fill-rule="nonzero" stroke="none" stroke-linecap="butt" stroke-linejoin="miter" stroke-miterlimit="10" stroke-dasharray="" stroke-dashoffset="0" style="mix-blend-mode: normal"><path d="M180.55257,648.86483v-330.75512h13.08232v330.75512z" fill="url(#color-1)" stroke-width="0"/><g stroke-width="0.5"><path d="M189.25435,323.35429c-0.1784,-0.03541 -0.25584,-0.17602 -0.28855,-0.30895c-0.33957,-0.02202 -0.33957,-0.50476 -0.33957,-0.50476v-0.2506c0.00008,-0.35017 -0.00398,-0.70053 -0.01334,-1.05056c-0.04714,-0.08485 -0.06554,-0.18384 -0.07234,-0.25924c-0.04046,0.11026 -0.11589,0.21958 -0.25649,0.24403c-0.02396,0.35536 -0.05969,0.70456 -0.10256,1.05598c0,0.0868 0,0.1736 0,0.2604l0.04015,0.29279c0,0 0.04542,0.37855 -0.18031,0.53097c-0.01564,0.1396 -0.08153,0.43358 -0.35904,0.43358c-0.01299,0 -0.02552,-0.00064 -0.03759,-0.00188c0.01254,0.35409 -0.25321,0.47715 -0.25321,0.47715l-0.38254,0.12102c0,0.0504 0,0.10079 0,0.15119v0.5012c0,0 0,0.50554 -0.3639,0.50554c-0.3639,0 -0.3639,-0.50554 -0.3639,-0.50554c0,-0.27362 0,-0.55491 0,-0.84196c-0.0138,0.24944 -0.0268,0.50022 -0.03978,0.75268l0.00092,0.27723c0,0 0,0.50554 -0.3639,0.50554c-0.3639,0 -0.3639,-0.50554 -0.3639,-0.50554l0.00092,-0.34927c0.02928,-0.56942 0.05922,-1.13072 0.09769,-1.68723c-0.05325,0.08951 -0.13872,0.16133 -0.27588,0.16133c-0.3639,0 -0.3639,-0.50554 -0.3639,-0.50554l0.00091,-0.21086c-0.03782,0.01722 -0.08185,0.02724 -0.13308,0.02724c-0.01375,0 -0.02698,-0.00072 -0.03971,-0.00211l-0.00508,0.06048c0,0 -0.04514,0.50164 -0.40623,0.43893c-0.04377,-0.0076 -0.08157,-0.02165 -0.11421,-0.04047c-0.00945,0.05426 -0.01904,0.10848 -0.02879,0.16265l-0.03919,0.3364c0,0 -0.05983,0.49866 -0.41878,0.41555c-0.35895,-0.08311 -0.29913,-0.58177 -0.29913,-0.58177l0.05101,-0.4154c0.12796,-0.71106 0.23008,-1.42917 0.34361,-2.14294c-0.15017,-0.04695 -0.215,-0.19909 -0.243,-0.32172c-0.06325,0.48759 -0.1422,0.97551 -0.22864,1.46191c-0.06593,0.59714 -0.10208,1.20051 -0.10208,1.81451v0.93976c0,0 0,0.50554 -0.3639,0.50554c-0.03073,0 -0.05887,-0.00361 -0.08463,-0.01021c-0.0445,0.12901 -0.13544,0.26081 -0.32125,0.26081c-0.3639,0 -0.3639,-0.50554 -0.3639,-0.50554l0.01087,-0.49851c0.15708,-0.87088 0.34489,-1.76241 0.50625,-2.65931c0.04413,-0.39801 0.10048,-0.79344 0.1674,-1.18742c-0.05589,0.03008 -0.12542,0.04083 -0.21159,0.01689c-0.04377,-0.01216 -0.0811,-0.03029 -0.1129,-0.05274c-0.01524,0.1789 -0.02868,0.35838 -0.03936,0.53876c0,0 -0.01321,0.22012 -0.1269,0.35723c-0.05639,0.61085 -0.09757,1.22594 -0.09734,1.85619v0.18795c0,0 0,0.50554 -0.3639,0.50554c-0.02848,0 -0.05473,-0.0031 -0.07893,-0.00881c-0.0344,0.09347 -0.09817,0.18081 -0.21188,0.23347c-0.34523,0.15986 -0.46031,-0.31973 -0.46031,-0.31973l-0.05569,-0.24189c-0.00333,-0.02171 -0.00662,-0.04337 -0.00986,-0.06498c-0.03722,0.01648 -0.08037,0.02604 -0.13039,0.02604c-0.3639,0 -0.3639,-0.50554 -0.3639,-0.50554l0.0018,-0.3009c0.04489,-0.61788 0.09439,-1.22081 0.13538,-1.82359c-0.03143,0.00288 -0.06591,0.00058 -0.10369,-0.00817c-0.07836,-0.01814 -0.13676,-0.05609 -0.18019,-0.10433c-0.00397,0.17702 -0.00789,0.35467 -0.01085,0.53249c0.11869,0.1493 0.11869,0.38884 0.11869,0.38884c0,0.66827 0,1.33654 0,2.00481v0.06266c0,0 0,0.01453 -0.00177,0.03868c0.01105,0.07189 0.02303,0.14344 0.036,0.21461l0.07504,0.24811c0,0 0.13515,0.46938 -0.20273,0.65713c-0.33788,0.18775 -0.47303,-0.28163 -0.47303,-0.28163l-0.10536,-0.37839c-0.26575,-1.49365 -0.14616,-3.10348 -0.14616,-4.63344c0,0 0,-0.06256 0.01584,-0.14368c-0.00973,-0.00397 -0.01906,-0.00839 -0.02802,-0.01324c-0.03137,0.14848 -0.11619,0.34921 -0.34549,0.34921c-0.3639,0 -0.3639,-0.50554 -0.3639,-0.50554c0.00019,-0.59928 0.01039,-1.19949 0.04638,-1.79668l-0.00128,-0.14549c0,0 0,-0.50554 0.3639,-0.50554c0.28911,0 0.34853,0.31909 0.36075,0.45025c0.02727,-0.00755 0.05726,-0.0117 0.09023,-0.0117c0.11916,0 0.1993,0.0542 0.25319,0.12711c0.0081,-0.33285 0.01455,-0.66582 0.01427,-0.99988v-0.1253c0,0 0,-0.50554 0.3639,-0.50554c0.3639,0 0.3639,0.50554 0.3639,0.50554v0.1253c-0.00009,0.11544 -0.00093,0.23071 -0.00233,0.34586c0.02552,-0.04308 0.05803,-0.08466 0.09884,-0.1156l-0.0113,-0.18828c0,0 -0.03022,-0.50379 0.33243,-0.54578c0.36265,-0.04198 0.39287,0.46181 0.39287,0.46181l0.00602,0.10038c0.26414,0.00538 0.33231,0.28101 0.3499,0.42291c0.05128,-0.21372 0.10257,-0.42745 0.15385,-0.64117l-0.01868,-0.15338c0,0 0,-0.50554 0.3639,-0.50554c0.19156,0 0.28228,0.14008 0.32525,0.27276c0.0599,-0.06214 0.14383,-0.10127 0.26107,-0.08091c0.21935,0.03809 0.2888,0.23815 0.30952,0.38934c0.04175,-0.3013 0.07374,-0.59788 0.09543,-0.88329l-0.00223,-0.00682c0,0 0,-0.50554 0.3639,-0.50554c0.15806,0 0.24747,0.09537 0.29804,0.20327c0.00848,-0.05349 0.01679,-0.10701 0.02492,-0.1606c0.235,0.03358 0.47328,0.05075 0.7143,0.05075c0.00686,0 0.01372,-0.00001 0.02057,-0.00004c-0.06745,0.46199 -0.14883,0.91985 -0.23524,1.37622c0.00222,-0.00129 0.00446,-0.00256 0.00672,-0.00382c0.01112,-0.04078 0.07015,-0.23488 0.20483,-0.31254v-0.08386c0,0 0,-0.50554 0.3639,-0.50554c0.1004,0 0.1731,0.03848 0.22574,0.0942l0.10321,-0.19674c0,0 0.25732,-0.35747 0.51464,0c0.22112,0.30717 0.06222,0.61435 0.01313,0.69471c-0.03276,0.12716 -0.06428,0.25346 -0.09452,0.37922c0.2891,0.13477 0.22601,0.57305 0.22601,0.57305l-0.04298,0.29722c-0.038,0.31216 -0.05999,0.62246 -0.07246,0.93264c0.11178,-0.70335 0.20979,-1.39999 0.30253,-2.10859l0.0463,-0.32196c0,0 0.07137,-0.49572 0.4282,-0.39658c0.1394,0.03873 0.21346,0.13799 0.25194,0.24457c0.22138,0.03294 0.28526,0.27294 0.3037,0.40873c0.16575,0.15618 0.15279,0.39733 0.13168,0.52295c0.04871,-0.00697 0.10452,0.00077 0.16815,0.03024c0.06348,0.02939 0.11139,0.0696 0.14732,0.11564c0.00681,-0.03163 0.01364,-0.06325 0.02048,-0.09488l0.03334,-0.36447c0,0 0.05146,-0.50046 0.41171,-0.42896c0.36025,0.07149 0.30878,0.57195 0.30878,0.57195l-0.00129,0.01162c0.06533,-0.03717 0.14835,-0.04695 0.2522,0.00114c0.31155,0.14427 0.24823,0.54893 0.23291,0.62651c0.04379,0.09897 0.05616,0.20609 0.05965,0.25869c0.15869,0.16151 0.13444,0.46468 0.13444,0.46468l-0.04343,0.53598c0.00047,0.50365 -0.01017,0.99767 -0.03155,1.49267c0.0346,-0.01359 0.0741,-0.02135 0.11918,-0.02135c0.3639,0 0.3639,0.50554 0.3639,0.50554c0,0.72584 0.00369,1.38944 -0.09726,2.10396l-0.04169,0.4109c0,0 -0.05146,0.50046 -0.41171,0.42897zM187.32334,322.43566l0.0319,0.48733c0.03492,-0.24453 0.06834,-0.48438 0.09843,-0.72276c0,-0.26766 0,-0.53533 0,-0.80299c-0.05783,0.14072 -0.11757,0.28114 -0.17866,0.42255c0.02008,0.19369 0.03595,0.39652 0.04833,0.61588zM186.28113,318.93601c-0.07743,-0.07696 -0.11171,-0.18276 -0.12562,-0.27842c-0.00541,0.2399 -0.0064,0.48006 -0.00598,0.72129c0.03199,-0.05405 0.07502,-0.10611 0.1316,-0.13774c0,-0.10231 0,-0.20405 0,-0.30514zM187.42295,318.64855c-0.01112,-0.00343 -0.02181,-0.00724 -0.03209,-0.0114c-0.00047,0.10933 0.00004,0.21884 0.0012,0.32836c0.0115,-0.03834 0.02871,-0.08564 0.05342,-0.13191c0.00173,-0.05918 0.0039,-0.11826 0.00658,-0.17726c-0.00949,-0.00215 -0.01919,-0.00474 -0.02911,-0.0078z" fill="#45d9a3"/><path d="M179.35003,318.80835c0.01137,-0.18343 0.02274,-0.36686 0.03411,-0.55029c0,0 0.03295,-0.53154 0.39536,-0.48322c0.36241,0.04832 0.32946,0.57986 0.32946,0.57986c-0.01137,0.18343 -0.02274,0.36685 -0.03411,0.55028l-0.03627,0.37734c0,0 -0.02921,0.29995 -0.19771,0.41557c0.01129,-0.00474 0.02307,-0.00903 0.03536,-0.01282c0.3561,-0.10995 0.43107,0.41233 0.43107,0.41233c0.02912,0.20572 0.05352,0.41192 0.07395,0.61854c0.02878,-0.0162 0.06139,-0.0287 0.09832,-0.03644c0.15158,-0.03176 0.24849,0.04339 0.3099,0.14111c0.03685,-0.03586 0.08285,-0.06507 0.14013,-0.08374c0.35524,-0.11578 0.43418,0.40524 0.43418,0.40524c0.11679,0.77195 0.21205,1.45617 0.213,2.2447l0.03317,0.57817c0,0 0.03022,0.53189 -0.33243,0.57621c-0.36265,0.04433 -0.39287,-0.48757 -0.39287,-0.48757l-0.03505,-0.62245c0.00008,-0.0607 -0.00046,-0.12055 -0.00158,-0.17971c-0.02484,0.01372 -0.05248,0.02485 -0.08321,0.03281c-0.12678,0.03281 -0.21662,-0.01176 -0.2798,-0.08308c0.00163,0.35215 0.00062,0.70497 0.00062,1.05823l0.0323,0.44715c0,0 0.03621,0.53109 -0.32589,0.58419c-0.3621,0.05311 -0.39831,-0.47797 -0.39831,-0.47797l-0.03592,-0.55337c0,-0.79975 0.00941,-1.60221 -0.02496,-2.39774c0.00154,0.21626 0.00227,0.43201 0.00239,0.64684v0.70036c0,0 0,0.53373 -0.3639,0.53373c-0.3639,0 -0.3639,-0.53373 -0.3639,-0.53373v-0.70036c0.00066,-1.01353 -0.01371,-2.05006 -0.06714,-3.06065c0,0 -0.02791,-0.53216 0.33492,-0.5731c0.02423,-0.00273 0.04698,-0.00291 0.06831,-0.00086zM179.68723,319.82273c0.02602,-0.03711 0.05865,-0.07021 0.09944,-0.09639c-0.03054,0.01153 -0.06468,0.01748 -0.10283,0.01606c0.00115,0.02677 0.00228,0.05354 0.00338,0.08033z" fill="#34a37b"/><path d="M183.66897,323.49251c-0.08863,0 -0.15568,-0.03166 -0.2064,-0.07956c-0.03818,0.01865 -0.08272,0.02954 -0.13468,0.02954c-0.05442,0 -0.1007,-0.01194 -0.14007,-0.03224c-0.03694,0.15123 -0.12543,0.3324 -0.33744,0.3324c-0.3639,0 -0.3639,-0.53373 -0.3639,-0.53373v-0.2001c0,-0.708 0.00146,-1.4066 -0.03318,-2.11308c0,0 -0.02593,-0.53237 0.33705,-0.5704c0.11917,-0.01248 0.20201,0.03651 0.25953,0.10796c0.03143,-0.0219 0.06802,-0.03934 0.1106,-0.05069c0.0924,-0.02464 0.16529,-0.00794 0.22259,0.03039c0.05233,-0.10301 0.13978,-0.18908 0.28591,-0.18908c0.3639,0 0.3639,0.53373 0.3639,0.53373c0,0.58363 0,1.16727 0,1.7509v0.45023c0,0 0,0.53373 -0.3639,0.53373z" fill="#34a37b"/><path d="M184.1251,320.30494c0.02526,-0.56872 0.09599,-1.1399 0.2244,-1.67781c0,0 0.1224,-0.50264 0.4651,-0.32312c0.3427,0.17952 0.22031,0.68215 0.22031,0.68215c-0.09784,0.39237 -0.16529,0.80689 -0.1849,1.22369l0.0929,0.51841c0,0 0.04346,0.25499 -0.05261,0.45183c0.06589,0.58711 0.11034,1.17619 0.16357,1.76971l0.03485,0.56098c0,0 0.03294,0.53154 -0.32946,0.57986c-0.36241,0.04832 -0.39536,-0.48322 -0.39536,-0.48322l-0.03337,-0.53959c-0.06938,-0.77184 -0.12112,-1.53655 -0.23291,-2.29839c0,0 -0.03102,-0.21231 0.03884,-0.39512z" fill="#34a37b"/><path d="M187.42888,323.88087c-0.35583,0.11183 -0.43207,-0.41006 -0.43207,-0.41006l-0.10365,-0.70988c-0.03451,-0.28666 -0.06902,-0.57333 -0.10353,-0.85999c0,0 -0.06324,-0.52561 0.29513,-0.61837c0.35837,-0.09276 0.42161,0.43286 0.42161,0.43286c0.0337,0.2803 0.06741,0.56059 0.10111,0.84088l0.10099,0.69084c0,0 0.07625,0.52189 -0.27958,0.63372z" fill="#34a37b"/><path d="M188.6259,320.8577c0,0 0,-0.53373 0.3639,-0.53373c0.3639,0 0.3639,0.53373 0.3639,0.53373c-0.00793,0.84764 -0.15786,1.33859 -0.41361,2.08964l-0.03411,0.10005c0,0 -0.0548,0.16073 -0.16438,0.24903c-0.00109,0.21988 -0.00293,0.44126 -0.00332,0.66496l0.06382,0.50273c0,0 0.0651,0.52512 -0.29294,0.6206c-0.35803,0.09548 -0.42313,-0.42965 -0.42313,-0.42965l-0.07262,-0.59783c-0.00149,-0.959 0.0443,-1.89988 -0.09571,-2.83759c0,0 -0.07625,-0.52189 0.27958,-0.63372c0.3141,-0.09872 0.41035,0.29638 0.4286,0.39039c0.00053,-0.03838 0.00053,-0.07788 0.00001,-0.11863z" fill="#34a37b"/><path d="M186.15885,324.69313c-0.3639,0 -0.3639,-0.53373 -0.3639,-0.53373l0.00126,-0.15578c-0.01137,-0.2001 -0.02274,-0.4002 -0.03411,-0.60031c0,0 -0.03022,-0.53189 0.33243,-0.57621c0.36265,-0.04433 0.39287,0.48757 0.39287,0.48757c0.01137,0.2001 0.02274,0.4002 0.03411,0.60031l0.00126,0.24443c0,0 0,0.53373 -0.3639,0.53373z" fill="#34a37b"/><path d="M182.03179,321.14131c-0.3639,0 -0.3639,-0.53373 -0.3639,-0.53373v-0.15008c0.00021,-0.16512 -0.00311,-0.33032 -0.00945,-0.49534c-0.1115,-0.11699 -0.14827,-0.31471 -0.14827,-0.31471l-0.09118,-0.50023c-0.05203,-0.15068 -0.10406,-0.30137 -0.15609,-0.45205c0,0 -0.16275,-0.47739 0.16274,-0.71608c0.32549,-0.23869 0.48823,0.23869 0.48823,0.23869c0.0344,0.10199 0.0688,0.20398 0.1032,0.30597c0.26849,0.03659 0.30721,0.46249 0.30721,0.46249c0.04381,0.48744 0.07084,0.9796 0.07141,1.47126v0.15008c0,0 0,0.53373 -0.3639,0.53373z" fill="#34a37b"/><path d="M182.90723,320.24487c-0.33254,-0.21677 -0.18474,-0.7045 -0.18474,-0.7045l0.10507,-0.23346c0,-0.23346 0,-0.46691 0,-0.70036c0,0 0,-0.53373 0.3639,-0.53373c0.3639,0 0.3639,0.53373 0.3639,0.53373c0,0.23346 0,0.46691 0,0.70036l-0.1678,0.667c0,0 -0.1478,0.48774 -0.48034,0.27097z" fill="#34a37b"/><path d="M186.47274,322.3488c-0.33448,0.21025 -0.47783,-0.28033 -0.47783,-0.28033l-0.10232,-0.35018c-0.12515,-0.43019 -0.23902,-0.86948 -0.32357,-1.32046c0,0 -0.09575,-0.51493 0.25533,-0.65536c0.35108,-0.14044 0.44683,0.37449 0.44683,0.37449c0.0744,0.40395 0.17753,0.79652 0.29037,1.18083l0.10232,0.35018c0,0 0.14335,0.49058 -0.19113,0.70083z" fill="#34a37b"/><path d="M187.55952,321.06877c-0.34856,0.15337 -0.45312,-0.35786 -0.45312,-0.35786l-0.10959,-0.54179c-0.06416,-0.44757 -0.10887,-0.90513 -0.1104,-1.36248c0,0 0,-0.53373 0.3639,-0.53373c0.3639,0 0.3639,0.53373 0.3639,0.53373c-0.00157,0.38238 0.03847,0.76527 0.09425,1.13881l0.09505,0.45872c0,0 0.10457,0.51122 -0.24399,0.66459z" fill="#5ef1bb"/><path d="M182.1795,324.1594c0,-0.29477 0.16293,-0.53373 0.3639,-0.53373c0.20098,0 0.3639,0.23896 0.3639,0.53373c0,0.29477 -0.16293,0.53373 -0.3639,0.53373c-0.20098,0 -0.3639,-0.23896 -0.3639,-0.53373z" fill="#5ef1bb"/><path d="M186.56814,324.14285c-0.3639,0 -0.3639,-0.53373 -0.3639,-0.53373l0.01867,-0.1814c-0.04548,-0.2001 -0.09095,-0.40021 -0.13643,-0.60031c0,0 -0.11508,-0.50634 0.23015,-0.67513c0.34523,-0.16878 0.46031,0.33756 0.46031,0.33756c0.04548,0.2001 0.09095,0.40021 0.13643,0.60031l0.01867,0.51896c0,0 0,0.53373 -0.3639,0.53373z" fill="#5ef1bb"/><path d="M180.76287,318.79697c-0.33448,-0.21025 -0.19113,-0.70083 -0.19113,-0.70083l0.07439,-0.18825c0.02487,-0.39836 0.0611,-0.79539 0.10578,-1.19001c0,0 0.05983,-0.52647 0.41878,-0.43873c0.35895,0.08775 0.29913,0.61422 0.29913,0.61422c-0.04203,0.36841 -0.07599,0.73915 -0.09887,1.11117l-0.13025,0.51211c0,0 -0.14335,0.49058 -0.47783,0.28033z" fill="#5ef1bb"/></g><g stroke-width="0.5"><path d="M196.4108,322.95409c-0.17841,-0.03541 -0.25583,-0.17602 -0.28855,-0.30895c-0.33957,-0.02202 -0.33957,-0.50476 -0.33957,-0.50476v-0.2506c0.00008,-0.35017 -0.00398,-0.70053 -0.01334,-1.05056c-0.04714,-0.08485 -0.06554,-0.18384 -0.07235,-0.25924c-0.04046,0.11026 -0.11589,0.21958 -0.25649,0.24403c-0.02396,0.35536 -0.0597,0.70456 -0.10256,1.05598c0,0.0868 0,0.1736 0,0.2604l0.04015,0.29279c0,0 0.04541,0.37855 -0.18031,0.53097c-0.01564,0.1396 -0.08152,0.43358 -0.35903,0.43358c-0.01299,0 -0.02552,-0.00064 -0.0376,-0.00188c0.01254,0.35409 -0.25321,0.47715 -0.25321,0.47715l-0.38255,0.12102c0,0.0504 0,0.10079 0,0.15119v0.5012c0,0 0.00001,0.50554 -0.3639,0.50554c-0.36391,0 -0.36391,-0.50554 -0.36391,-0.50554c0,-0.27362 0,-0.55491 0,-0.84196c-0.0138,0.24944 -0.0268,0.50022 -0.03978,0.75268l0.00092,0.27723c0,0 0.00001,0.50554 -0.3639,0.50554c-0.36391,0 -0.36391,-0.50554 -0.36391,-0.50554l0.00093,-0.34927c0.02928,-0.56942 0.05922,-1.13072 0.09768,-1.68723c-0.05325,0.08951 -0.13872,0.16133 -0.27588,0.16133c-0.36391,0 -0.36391,-0.50554 -0.36391,-0.50554l0.00091,-0.21086c-0.03782,0.01722 -0.08185,0.02724 -0.13308,0.02724c-0.01375,0 -0.02698,-0.00072 -0.03971,-0.00211l-0.00507,0.06048c0,0 -0.04514,0.50164 -0.40623,0.43893c-0.04377,-0.0076 -0.08157,-0.02165 -0.11421,-0.04047c-0.00946,0.05426 -0.01904,0.10848 -0.02879,0.16265l-0.03919,0.3364c0,0 -0.05983,0.49866 -0.41878,0.41555c-0.35895,-0.08311 -0.29913,-0.58177 -0.29913,-0.58177l0.05101,-0.4154c0.12796,-0.71106 0.23008,-1.42917 0.34361,-2.14294c-0.15017,-0.04695 -0.215,-0.19909 -0.243,-0.32172c-0.06325,0.48759 -0.1422,0.97551 -0.22864,1.46191c-0.06593,0.59714 -0.10207,1.20051 -0.10207,1.81451v0.93976c0,0 0,0.50554 -0.36391,0.50554c-0.03073,0 -0.05887,-0.00361 -0.08463,-0.01021c-0.0445,0.12901 -0.13544,0.26081 -0.32125,0.26081c-0.36391,0 -0.36391,-0.50554 -0.36391,-0.50554l0.01087,-0.49851c0.15708,-0.87088 0.34489,-1.76241 0.50625,-2.65931c0.04413,-0.39801 0.10049,-0.79344 0.1674,-1.18742c-0.05589,0.03008 -0.12541,0.04083 -0.21158,0.01689c-0.04377,-0.01216 -0.0811,-0.03029 -0.11291,-0.05274c-0.01524,0.1789 -0.02868,0.35838 -0.03935,0.53876c0,0 -0.0132,0.22012 -0.12689,0.35723c-0.05639,0.61085 -0.09757,1.22594 -0.09734,1.85619v0.18795c0,0 0.00001,0.50554 -0.3639,0.50554c-0.02848,0 -0.05473,-0.0031 -0.07893,-0.00881c-0.0344,0.09347 -0.09817,0.18081 -0.21188,0.23347c-0.34523,0.15986 -0.46031,-0.31973 -0.46031,-0.31973l-0.05569,-0.24189c-0.00333,-0.02171 -0.00662,-0.04337 -0.00986,-0.06498c-0.03722,0.01648 -0.08037,0.02604 -0.1304,0.02604c-0.36391,0 -0.3639,-0.50554 -0.3639,-0.50554l0.00181,-0.3009c0.04489,-0.61788 0.09438,-1.22081 0.13538,-1.82359c-0.03144,0.00288 -0.06591,0.00058 -0.10369,-0.00817c-0.07836,-0.01814 -0.13677,-0.05609 -0.18019,-0.10433c-0.00398,0.17702 -0.00789,0.35467 -0.01085,0.53249c0.11869,0.1493 0.11869,0.38884 0.11869,0.38884c0,0.66827 0,1.33654 0,2.00481v0.06266c0,0 0.00001,0.01453 -0.00177,0.03868c0.01105,0.07189 0.02303,0.14344 0.03601,0.21461l0.07503,0.24811c0,0 0.13515,0.46938 -0.20272,0.65713c-0.33788,0.18775 -0.47303,-0.28163 -0.47303,-0.28163l-0.10536,-0.37839c-0.26575,-1.49365 -0.14616,-3.10348 -0.14616,-4.63344c0,0 0,-0.06256 0.01584,-0.14368c-0.00973,-0.00397 -0.01906,-0.00839 -0.02802,-0.01324c-0.03137,0.14848 -0.11619,0.34921 -0.34549,0.34921c-0.36391,0 -0.36391,-0.50554 -0.36391,-0.50554c0.00019,-0.59928 0.0104,-1.19949 0.04638,-1.79668l-0.00128,-0.14549c0,0 -0.00001,-0.50554 0.3639,-0.50554c0.28911,0 0.34854,0.31909 0.36075,0.45025c0.02727,-0.00755 0.05725,-0.0117 0.09023,-0.0117c0.11916,0 0.19929,0.0542 0.25319,0.12711c0.0081,-0.33285 0.01455,-0.66582 0.01427,-0.99988v-0.1253c0,0 0,-0.50554 0.36391,-0.50554c0.36391,0 0.36391,0.50554 0.36391,0.50554v0.1253c-0.00009,0.11544 -0.00093,0.23071 -0.00233,0.34586c0.02552,-0.04308 0.05803,-0.08466 0.09883,-0.1156l-0.01129,-0.18828c0,0 -0.03022,-0.50379 0.33243,-0.54578c0.36265,-0.04198 0.39287,0.46181 0.39287,0.46181l0.00602,0.10038c0.26414,0.00538 0.33231,0.28101 0.3499,0.42291c0.05128,-0.21372 0.10256,-0.42745 0.15385,-0.64117l-0.01868,-0.15338c0,0 0,-0.50554 0.36391,-0.50554c0.19155,0 0.28228,0.14008 0.32524,0.27276c0.05989,-0.06214 0.14383,-0.10127 0.26107,-0.08091c0.21935,0.03809 0.2888,0.23815 0.30952,0.38934c0.04175,-0.3013 0.07374,-0.59788 0.09543,-0.88329l-0.00223,-0.00682c0,0 -0.00001,-0.50554 0.3639,-0.50554c0.15806,0 0.24747,0.09537 0.29804,0.20327c0.00848,-0.05349 0.0168,-0.10701 0.02492,-0.1606c0.235,0.03358 0.47328,0.05075 0.7143,0.05075c0.00686,0 0.01372,-0.00001 0.02057,-0.00004c-0.06745,0.46199 -0.14884,0.91985 -0.23524,1.37622c0.00221,-0.00129 0.00446,-0.00256 0.00672,-0.00382c0.01113,-0.04078 0.07015,-0.23488 0.20483,-0.31254v-0.08386c0,0 0,-0.50554 0.36391,-0.50554c0.1004,0 0.1731,0.03848 0.22574,0.0942l0.10321,-0.19674c0,0 0.25732,-0.35747 0.51464,0c0.22111,0.30717 0.06222,0.61435 0.01313,0.69471c-0.03276,0.12716 -0.06428,0.25346 -0.09452,0.37922c0.2891,0.13477 0.22601,0.57305 0.22601,0.57305l-0.04299,0.29722c-0.038,0.31216 -0.05999,0.62246 -0.07246,0.93264c0.11178,-0.70335 0.20979,-1.39999 0.30253,-2.10859l0.0463,-0.32196c0,0 0.07136,-0.49572 0.4282,-0.39658c0.13941,0.03873 0.21346,0.13799 0.25195,0.24457c0.22138,0.03294 0.28526,0.27294 0.3037,0.40873c0.16575,0.15618 0.15279,0.39733 0.13168,0.52295c0.04871,-0.00697 0.10452,0.00077 0.16815,0.03024c0.06348,0.02939 0.11139,0.0696 0.14732,0.11564c0.00681,-0.03163 0.01363,-0.06325 0.02048,-0.09488l0.03334,-0.36447c0,0 0.05146,-0.50046 0.41171,-0.42896c0.36025,0.07149 0.30879,0.57195 0.30879,0.57195l-0.00129,0.01162c0.06533,-0.03717 0.14835,-0.04695 0.2522,0.00114c0.31156,0.14427 0.24823,0.54893 0.23291,0.62651c0.04379,0.09897 0.05616,0.20609 0.05965,0.25869c0.15869,0.16151 0.13444,0.46468 0.13444,0.46468l-0.04343,0.53598c0.00047,0.50365 -0.01018,0.99767 -0.03155,1.49267c0.0346,-0.01359 0.0741,-0.02135 0.11918,-0.02135c0.36391,0 0.3639,0.50554 0.3639,0.50554c0,0.72584 0.00369,1.38944 -0.09726,2.10396l-0.04169,0.4109c0,0 -0.05146,0.50046 -0.41171,0.42897zM194.4798,322.03545l0.03189,0.48733c0.03492,-0.24453 0.06834,-0.48438 0.09843,-0.72276c0,-0.26766 0,-0.53533 0,-0.80299c-0.05783,0.14072 -0.11757,0.28114 -0.17866,0.42255c0.02008,0.19369 0.03595,0.39652 0.04833,0.61588zM193.43758,318.5358c-0.07743,-0.07696 -0.11171,-0.18276 -0.12562,-0.27842c-0.00542,0.2399 -0.0064,0.48006 -0.00598,0.72129c0.03199,-0.05405 0.07502,-0.10611 0.1316,-0.13774c0,-0.10231 0,-0.20405 0,-0.30514zM194.57941,318.24835c-0.01111,-0.00343 -0.02181,-0.00724 -0.03209,-0.0114c-0.00047,0.10933 0.00004,0.21884 0.0012,0.32836c0.0115,-0.03834 0.02871,-0.08564 0.05342,-0.13191c0.00173,-0.05918 0.0039,-0.11826 0.00658,-0.17726c-0.00949,-0.00215 -0.01919,-0.00474 -0.02911,-0.0078z" fill="#45d9a3"/><path d="M186.50649,318.40815c0.01137,-0.18343 0.02274,-0.36686 0.03411,-0.55029c0,0 0.03295,-0.53154 0.39536,-0.48322c0.36241,0.04832 0.32946,0.57986 0.32946,0.57986c-0.01137,0.18343 -0.02274,0.36685 -0.03411,0.55028l-0.03627,0.37734c0,0 -0.02921,0.29995 -0.19771,0.41557c0.01129,-0.00474 0.02306,-0.00903 0.03536,-0.01282c0.3561,-0.10995 0.43107,0.41233 0.43107,0.41233c0.02912,0.20572 0.05351,0.41192 0.07395,0.61854c0.02878,-0.0162 0.06138,-0.0287 0.09832,-0.03644c0.15158,-0.03176 0.24849,0.04339 0.3099,0.14111c0.03685,-0.03586 0.08285,-0.06507 0.14013,-0.08374c0.35524,-0.11578 0.43418,0.40524 0.43418,0.40524c0.11679,0.77195 0.21205,1.45617 0.213,2.2447l0.03316,0.57817c0,0 0.03022,0.53189 -0.33243,0.57621c-0.36265,0.04433 -0.39287,-0.48757 -0.39287,-0.48757l-0.03505,-0.62245c0.00008,-0.0607 -0.00046,-0.12055 -0.00158,-0.17971c-0.02484,0.01372 -0.05248,0.02485 -0.08321,0.03281c-0.12678,0.03281 -0.21662,-0.01176 -0.27979,-0.08308c0.00163,0.35215 0.00062,0.70497 0.00062,1.05823l0.0323,0.44715c0,0 0.03621,0.53109 -0.32589,0.58419c-0.3621,0.05311 -0.39831,-0.47797 -0.39831,-0.47797l-0.03591,-0.55337c0,-0.79975 0.0094,-1.60221 -0.02496,-2.39774c0.00154,0.21626 0.00227,0.43201 0.00239,0.64684v0.70036c0,0 0.00001,0.53373 -0.3639,0.53373c-0.36391,0 -0.36391,-0.53373 -0.36391,-0.53373v-0.70036c0.00066,-1.01353 -0.01371,-2.05006 -0.06714,-3.06065c0,0 -0.02791,-0.53216 0.33492,-0.5731c0.02423,-0.00273 0.04698,-0.00291 0.06831,-0.00086zM186.84368,319.42252c0.02602,-0.03711 0.05865,-0.07021 0.09945,-0.09639c-0.03054,0.01153 -0.06468,0.01748 -0.10283,0.01606c0.00116,0.02677 0.00229,0.05354 0.00339,0.08033z" fill="#34a37b"/><path d="M190.82542,323.09231c-0.08863,0 -0.15568,-0.03166 -0.20639,-0.07956c-0.03818,0.01865 -0.08272,0.02954 -0.13469,0.02954c-0.05442,0 -0.1007,-0.01194 -0.14007,-0.03224c-0.03694,0.15123 -0.12543,0.3324 -0.33744,0.3324c-0.36391,0 -0.36391,-0.53373 -0.36391,-0.53373v-0.2001c0,-0.708 0.00146,-1.4066 -0.03319,-2.11308c0,0 -0.02593,-0.53237 0.33705,-0.5704c0.11917,-0.01248 0.20201,0.03651 0.25953,0.10796c0.03143,-0.0219 0.06803,-0.03934 0.1106,-0.05069c0.0924,-0.02464 0.16529,-0.00794 0.22259,0.03039c0.05233,-0.10301 0.13978,-0.18908 0.28591,-0.18908c0.36391,0 0.3639,0.53373 0.3639,0.53373c0,0.58363 0,1.16727 0,1.7509v0.45023c0,0 0.00001,0.53373 -0.3639,0.53373z" fill="#34a37b"/><path d="M191.28156,319.90474c0.02526,-0.56872 0.09599,-1.1399 0.2244,-1.67781c0,0 0.12239,-0.50264 0.4651,-0.32312c0.3427,0.17952 0.22031,0.68215 0.22031,0.68215c-0.09784,0.39237 -0.16529,0.80689 -0.1849,1.22369l0.09291,0.51841c0,0 0.04346,0.25499 -0.05261,0.45183c0.06589,0.58711 0.11035,1.17619 0.16357,1.76971l0.03484,0.56098c0,0 0.03294,0.53154 -0.32947,0.57986c-0.36241,0.04832 -0.39535,-0.48322 -0.39535,-0.48322l-0.03337,-0.53959c-0.06938,-0.77184 -0.12112,-1.53655 -0.23291,-2.29839c0,0 -0.03102,-0.21231 0.03884,-0.39512z" fill="#34a37b"/><path d="M194.58533,323.48067c-0.35582,0.11183 -0.43207,-0.41006 -0.43207,-0.41006l-0.10366,-0.70988c-0.03451,-0.28666 -0.06902,-0.57333 -0.10354,-0.85999c0,0 -0.06324,-0.52561 0.29513,-0.61837c0.35837,-0.09276 0.42161,0.43286 0.42161,0.43286c0.0337,0.2803 0.0674,0.56059 0.10111,0.84088l0.10099,0.69084c0,0 0.07625,0.52189 -0.27957,0.63372z" fill="#34a37b"/><path d="M195.78236,320.4575c0,0 -0.00001,-0.53373 0.3639,-0.53373c0.36391,0 0.36391,0.53373 0.36391,0.53373c-0.00794,0.84764 -0.15786,1.33859 -0.41361,2.08964l-0.0341,0.10005c0,0 -0.0548,0.16073 -0.16438,0.24903c-0.00109,0.21988 -0.00293,0.44126 -0.00332,0.66496l0.06382,0.50273c0,0 0.06509,0.52512 -0.29294,0.6206c-0.35803,0.09548 -0.42313,-0.42965 -0.42313,-0.42965l-0.07262,-0.59783c-0.00149,-0.959 0.0443,-1.89988 -0.09571,-2.83759c0,0 -0.07624,-0.52189 0.27958,-0.63372c0.3141,-0.09872 0.41035,0.29638 0.4286,0.39039c0.00053,-0.03838 0.00054,-0.07788 0.00001,-0.11863z" fill="#34a37b"/><path d="M193.31531,324.29293c-0.36391,0 -0.36391,-0.53373 -0.36391,-0.53373l0.00126,-0.15578c-0.01137,-0.2001 -0.02274,-0.4002 -0.03411,-0.60031c0,0 -0.03022,-0.53189 0.33243,-0.57621c0.36265,-0.04433 0.39287,0.48757 0.39287,0.48757c0.01137,0.2001 0.02274,0.4002 0.03411,0.60031l0.00126,0.24443c0,0 0,0.53373 -0.36391,0.53373z" fill="#34a37b"/><path d="M189.18824,320.7411c-0.36391,0 -0.36391,-0.53373 -0.36391,-0.53373v-0.15008c0.00021,-0.16512 -0.00311,-0.33032 -0.00945,-0.49534c-0.1115,-0.11699 -0.14827,-0.31471 -0.14827,-0.31471l-0.09118,-0.50023c-0.05203,-0.15068 -0.10406,-0.30137 -0.15609,-0.45205c0,0 -0.16274,-0.47739 0.16274,-0.71608c0.32548,-0.23869 0.48823,0.23869 0.48823,0.23869c0.0344,0.10199 0.06881,0.20398 0.1032,0.30597c0.26849,0.03659 0.30721,0.46249 0.30721,0.46249c0.04382,0.48744 0.07083,0.9796 0.07141,1.47126v0.15008c0,0 0.00001,0.53373 -0.3639,0.53373z" fill="#34a37b"/><path d="M190.06368,319.84466c-0.33254,-0.21677 -0.18474,-0.7045 -0.18474,-0.7045l0.10507,-0.23346c0,-0.23346 0,-0.46691 0,-0.70036c0,0 -0.00001,-0.53373 0.3639,-0.53373c0.36391,0 0.36391,0.53373 0.36391,0.53373c0,0.23346 0,0.46691 0,0.70036l-0.1678,0.667c0,0 -0.14779,0.48774 -0.48034,0.27097z" fill="#34a37b"/><path d="M193.6292,321.94859c-0.33448,0.21025 -0.47783,-0.28033 -0.47783,-0.28033l-0.10232,-0.35018c-0.12515,-0.43019 -0.23901,-0.86948 -0.32357,-1.32046c0,0 -0.09575,-0.51493 0.25533,-0.65536c0.35108,-0.14044 0.44683,0.37449 0.44683,0.37449c0.07441,0.40395 0.17752,0.79652 0.29037,1.18083l0.10232,0.35018c0,0 0.14335,0.49058 -0.19113,0.70083z" fill="#34a37b"/><path d="M194.71598,320.66857c-0.34856,0.15337 -0.45313,-0.35786 -0.45313,-0.35786l-0.10959,-0.54179c-0.06416,-0.44757 -0.10887,-0.90512 -0.1104,-1.36247c0,0 -0.00001,-0.53373 0.3639,-0.53373c0.36391,0 0.36391,0.53373 0.36391,0.53373c-0.00157,0.38238 0.03847,0.76527 0.09424,1.13881l0.09505,0.45872c0,0 0.10457,0.51123 -0.24399,0.66459z" fill="#5ef1bb"/><path d="M189.33596,323.75919c0,-0.29477 0.16293,-0.53373 0.36391,-0.53373c0.20098,0 0.3639,0.23896 0.3639,0.53373c0,0.29477 -0.16292,0.53373 -0.3639,0.53373c-0.20098,0 -0.36391,-0.23896 -0.36391,-0.53373z" fill="#5ef1bb"/><path d="M193.7246,323.74264c-0.36391,0 -0.3639,-0.53373 -0.3639,-0.53373l0.01867,-0.18139c-0.04548,-0.2001 -0.09095,-0.40021 -0.13643,-0.60031c0,0 -0.11508,-0.50634 0.23015,-0.67513c0.34523,-0.16878 0.46031,0.33757 0.46031,0.33757c0.04548,0.2001 0.09095,0.4002 0.13643,0.60031l0.01867,0.51896c0,0 0,0.53373 -0.36391,0.53373z" fill="#5ef1bb"/><path d="M187.91933,318.39677c-0.33448,-0.21025 -0.19113,-0.70083 -0.19113,-0.70083l0.0744,-0.18825c0.02487,-0.39836 0.0611,-0.79539 0.10578,-1.19001c0,0 0.05982,-0.52648 0.41878,-0.43873c0.35895,0.08775 0.29913,0.61422 0.29913,0.61422c-0.04203,0.36841 -0.07599,0.73915 -0.09887,1.11116l-0.13025,0.51211c0,0 -0.14335,0.49058 -0.47783,0.28033z" fill="#5ef1bb"/></g></g></g></svg>