<svg version="1.1" xmlns="http://www.w3.org/2000/svg" xmlns:xlink="http://www.w3.org/1999/xlink" width="13.25203" height="14.30894" viewBox="0,0,13.25203,14.30894"><defs><radialGradient cx="179.76995" cy="315.32303" r="3.50386" gradientUnits="userSpaceOnUse" id="color-1"><stop offset="0" stop-color="#8a5c25"/><stop offset="1" stop-color="#71371a"/></radialGradient><linearGradient x1="176.26609" y1="315.32303" x2="183.27382" y2="315.32303" gradientUnits="userSpaceOnUse" id="color-2"><stop offset="0" stop-color="#a9712e"/><stop offset="1" stop-color="#934822"/></linearGradient></defs><g transform="translate(-173.1869,-308.29809)"><g data-paper-data="{&quot;isPaintingLayer&quot;:true}" fill-rule="nonzero" stroke-width="0" stroke-linecap="butt" stroke-linejoin="miter" stroke-miterlimit="10" stroke-dasharray="" stroke-dashoffset="0" style="mix-blend-mode: normal"><path d="M176.26609,320.26481v-9.88356h7.00774v9.88356z" fill="url(#color-1)" stroke="#000000"/><path d="M176.24993,320.24765v-9.96077h0.96931v9.96077z" fill="#2c170a" stroke="none"/><path d="M182.32426,320.24765v-9.96077h0.96931v9.96077z" fill="#2c170a" stroke="none"/><path d="M176.26609,320.26481v-9.88356h7.00774v9.88356z" fill="url(#color-2)" stroke="#000000"/><path d="M176.24993,320.3696v-10.08272h0.96931v10.08272z" fill="#2c170a" stroke="none"/><path d="M182.32426,320.3696v-10.08272h0.96931v10.08272z" fill="#2c170a" stroke="none"/><path d="M183.26844,312.83498v-1.85317l1.07519,0.91821z" fill="#2c170a" stroke="#472310"/><path d="M183.26844,318.81059v-1.85317l1.07519,0.91821z" fill="#2c170a" stroke="#472310"/><path d="M175.22126,318.56669l1.07519,-0.91821v1.85317z" data-paper-data="{&quot;index&quot;:null}" fill="#2c170a" stroke="#472310"/><path d="M173.1869,322.60703v-14.30894h13.25203v14.30894z" fill="none" stroke="none"/></g></g></svg>