<svg version="1.1" xmlns="http://www.w3.org/2000/svg" xmlns:xlink="http://www.w3.org/1999/xlink" width="1317.68262" height="59.89236" viewBox="0,0,1317.68262,59.89236"><defs><linearGradient x1="323.81377" y1="317.47532" x2="323.81377" y2="272.05844" gradientUnits="userSpaceOnUse" id="color-1"><stop offset="0" stop-color="#c6efff"/><stop offset="1" stop-color="#c6efff" stop-opacity="0"/></linearGradient><linearGradient x1="167.52548" y1="290.0955" x2="167.52548" y2="331.95078" gradientUnits="userSpaceOnUse" id="color-2"><stop offset="0" stop-color="#aae7ff"/><stop offset="1" stop-color="#e2f6ff"/></linearGradient><linearGradient x1="487.72982" y1="290.0955" x2="487.72982" y2="331.95078" gradientUnits="userSpaceOnUse" id="color-3"><stop offset="0" stop-color="#aae7ff"/><stop offset="1" stop-color="#e2f6ff"/></linearGradient><linearGradient x1="971.70387" y1="317.47532" x2="971.70387" y2="272.05844" gradientUnits="userSpaceOnUse" id="color-4"><stop offset="0" stop-color="#c6efff"/><stop offset="1" stop-color="#c6efff" stop-opacity="0"/></linearGradient><linearGradient x1="815.41558" y1="290.0955" x2="815.41558" y2="331.95078" gradientUnits="userSpaceOnUse" id="color-5"><stop offset="0" stop-color="#aae7ff"/><stop offset="1" stop-color="#e2f6ff"/></linearGradient><linearGradient x1="1135.61992" y1="290.0955" x2="1135.61992" y2="331.95078" gradientUnits="userSpaceOnUse" id="color-6"><stop offset="0" stop-color="#aae7ff"/><stop offset="1" stop-color="#e2f6ff"/></linearGradient></defs><g transform="translate(6.6212,-272.05844)"><g data-paper-data="{&quot;isPaintingLayer&quot;:true}" fill-rule="nonzero" stroke-linecap="butt" stroke-linejoin="miter" stroke-miterlimit="10" stroke-dasharray="" stroke-dashoffset="0" style="mix-blend-mode: normal"><g><g><path d="M647.80229,272.05844v45.41691h-647.97704v-45.41691z" data-paper-data="{&quot;index&quot;:null}" fill="url(#color-1)" stroke-opacity="0.48235" stroke="#ffffff" stroke-width="0"/><path d="M3.14697,304.53534c1.05951,-5.69946 5.27299,-8.26522 15.32353,-9.61684c8.97711,-1.20727 19.58657,-0.84385 28.92175,0c2.46245,0.22259 4.92534,0.6399 7.37865,0.9206c1.23857,0.14172 2.56416,0.7668 3.69926,0.46487c1.80625,-0.48045 2.70916,-1.61548 4.26348,-2.30527c6.39578,-2.8384 18.93427,-2.02917 25.84551,-2.02917c3.98847,0 15.47803,1.70685 18.81324,2.45439c1.33995,0.30033 6.66213,2.79218 7.94399,2.74334c0.96329,-0.0367 4.62742,-2.31631 4.7867,-2.387c1.32379,-0.58749 4.08433,-1.1666 5.43051,-1.52868c7.60013,-2.04417 23.09794,-2.45439 30.58528,-2.45439c3.26986,0 7.1712,0.49542 10.09585,1.28206c6.10781,1.64279 10.00201,5.02674 17.43322,4.64051c7.02443,-0.36509 11.68821,-3.47047 18.1542,-4.59487c10.20777,-1.77508 24.44164,-2.89295 34.88667,-1.17234c6.68737,1.10161 13.37487,3.50652 18.9852,5.66019c0.81187,0.31166 1.83745,-0.42295 2.79113,-0.58005c2.14335,-0.35307 4.38545,-0.45222 6.53804,-0.78156c8.45665,-1.29385 16.94502,-3.67237 26.08629,-3.67237c12.24744,0 23.93425,3.86286 31.64818,8.66762c1.84857,1.15142 2.5339,3.44447 2.93352,4.73156c0.13795,0.44429 1.35199,0.53728 1.94424,0.85571c1.4766,0.79393 3.52051,1.78409 4.50205,2.80489c0.97437,1.01334 1.73422,2.23965 1.98638,3.35826c0.15172,0.67307 -0.57497,1.53199 0.28377,2.02828c1.32839,0.76772 3.54484,1.12121 4.42679,2.05659c1.63993,1.73928 2.83769,3.69778 2.83769,5.64799c0,5.73096 -7.90757,9.69984 -18.16122,9.76949c-6.54467,0.04445 -13.0904,-0.00594 -19.63558,0c-3.64917,0.00331 -7.57985,0.45165 -11.31293,0.45165c-4.29721,0 -8.66778,-0.78581 -12.98384,-0.84243c-4.48437,-0.05883 -8.97161,0.02281 -13.45711,0c-4.18294,-0.02128 -8.10788,-0.77418 -12.37859,-0.78156c-53.98943,-0.09334 -107.97944,0.02649 -161.96913,0c-1.97227,-0.00097 -3.91741,-0.3522 -5.86176,-0.39078c-4.1725,-0.08279 -9.276,0.22519 -13.68182,-0.18972c-1.842,-0.17346 -3.63171,-0.56563 -5.50109,-0.59184c-12.23034,-0.17151 -24.4693,0.04723 -36.70347,0c-4.5045,-0.01739 -8.64955,-1.06459 -12.77912,-1.89323c-11.47838,-2.30326 -25.84559,-7.23356 -23.64171,-14.79135c0.18791,-0.64441 2.86537,-4.09212 3.66253,-4.59459c1.4847,-0.93585 4.10077,-1.90512 5.87969,-2.73157z" fill="url(#color-2)" stroke="none" stroke-width="0.5"/><path d="M322.12905,304.53534c1.06739,-5.69946 5.3122,-8.26522 15.43747,-9.61684c9.04386,-1.20727 19.73221,-0.84385 29.1368,0c2.48076,0.22259 4.96196,0.6399 7.43351,0.9206c1.24778,0.14172 2.58323,0.7668 3.72676,0.46487c1.81968,-0.48045 2.7293,-1.61548 4.29518,-2.30527c6.44334,-2.8384 19.07506,-2.02917 26.03769,-2.02917c4.01813,0 15.59312,1.70685 18.95313,2.45439c1.34991,0.30033 6.71167,2.79218 8.00306,2.74334c0.97045,-0.0367 4.66183,-2.31631 4.8223,-2.387c1.33363,-0.58749 4.11469,-1.1666 5.47089,-1.52868c7.65664,-2.04417 23.26969,-2.45439 30.8127,-2.45439c3.29418,0 7.22452,0.49542 10.17092,1.28206c6.15323,1.64279 10.07639,5.02674 17.56285,4.64051c7.07666,-0.36509 11.77512,-3.47047 18.28919,-4.59487c10.28368,-1.77508 24.62338,-2.89295 35.14608,-1.17234c6.73709,1.10161 13.47432,3.50652 19.12637,5.66019c0.81791,0.31166 1.85111,-0.42295 2.81188,-0.58005c2.15929,-0.35307 4.41806,-0.45222 6.58665,-0.78156c8.51953,-1.29385 17.07102,-3.67237 26.28026,-3.67237c12.33851,0 24.11221,3.86286 31.8835,8.66762c1.86232,1.15142 2.55274,3.44447 2.95533,4.73156c0.13897,0.44429 1.36205,0.53728 1.9587,0.85571c1.48758,0.79393 3.54669,1.78409 4.53552,2.80489c0.98161,1.01334 1.74711,2.23965 2.00115,3.35826c0.15285,0.67307 -0.57924,1.53199 0.28588,2.02828c1.33827,0.76772 3.5712,1.12121 4.45971,2.05659c1.65212,1.73928 2.85879,3.69778 2.85879,5.64799c0,5.73096 -7.96637,9.69984 -18.29626,9.76949c-6.59333,0.04445 -13.18773,-0.00594 -19.78159,0c-3.6763,0.00331 -7.63621,0.45165 -11.39705,0.45165c-4.32916,0 -8.73223,-0.78581 -13.08039,-0.84243c-4.51772,-0.05883 -9.03832,0.02281 -13.55717,0c-4.21405,-0.02128 -8.16817,-0.77418 -12.47063,-0.78156c-54.39088,-0.09334 -108.78234,0.02649 -163.17348,0c-1.98693,-0.00097 -3.94654,-0.3522 -5.90535,-0.39078c-4.20352,-0.08279 -9.34497,0.22519 -13.78355,-0.18972c-1.85569,-0.17346 -3.65872,-0.56563 -5.542,-0.59184c-12.32128,-0.17151 -24.65125,0.04723 -36.97639,0c-4.53799,-0.01739 -8.71386,-1.06459 -12.87414,-1.89323c-11.56373,-2.30326 -26.03777,-7.23356 -23.8175,-14.79135c0.18931,-0.64441 2.88667,-4.09212 3.68976,-4.59459c1.49574,-0.93585 4.13126,-1.90512 5.92341,-2.73157z" fill="url(#color-3)" stroke="none" stroke-width="0.5"/></g><g><path d="M1295.69239,272.05844v45.41691h-647.97704v-45.41691z" data-paper-data="{&quot;index&quot;:null}" fill="url(#color-4)" stroke-opacity="0.48235" stroke="#ffffff" stroke-width="0"/><path d="M651.03707,304.53534c1.05951,-5.69946 5.27299,-8.26522 15.32353,-9.61684c8.97711,-1.20727 19.58657,-0.84385 28.92175,0c2.46245,0.22259 4.92534,0.6399 7.37865,0.9206c1.23857,0.14172 2.56416,0.7668 3.69926,0.46487c1.80625,-0.48045 2.70916,-1.61548 4.26348,-2.30527c6.39578,-2.8384 18.93427,-2.02917 25.84551,-2.02917c3.98847,0 15.47803,1.70685 18.81324,2.45439c1.33995,0.30033 6.66213,2.79218 7.94399,2.74334c0.96329,-0.0367 4.62742,-2.31631 4.7867,-2.387c1.32379,-0.58749 4.08433,-1.1666 5.43051,-1.52868c7.60013,-2.04417 23.09794,-2.45439 30.58528,-2.45439c3.26986,0 7.1712,0.49542 10.09585,1.28206c6.10781,1.64279 10.00201,5.02674 17.43322,4.64051c7.02443,-0.36509 11.68821,-3.47047 18.1542,-4.59487c10.20777,-1.77508 24.44164,-2.89295 34.88667,-1.17234c6.68737,1.10161 13.37487,3.50652 18.9852,5.66019c0.81187,0.31166 1.83745,-0.42295 2.79113,-0.58005c2.14335,-0.35307 4.38545,-0.45222 6.53804,-0.78156c8.45665,-1.29385 16.94502,-3.67237 26.08629,-3.67237c12.24744,0 23.93425,3.86286 31.64818,8.66762c1.84857,1.15142 2.5339,3.44447 2.93352,4.73156c0.13795,0.44429 1.35199,0.53728 1.94424,0.85571c1.4766,0.79393 3.52051,1.78409 4.50205,2.80489c0.97437,1.01334 1.73422,2.23965 1.98638,3.35826c0.15172,0.67307 -0.57497,1.53199 0.28377,2.02828c1.32839,0.76772 3.54484,1.12121 4.42679,2.05659c1.63993,1.73928 2.83769,3.69778 2.83769,5.64799c0,5.73096 -7.90757,9.69984 -18.16122,9.76949c-6.54467,0.04445 -13.0904,-0.00594 -19.63558,0c-3.64917,0.00331 -7.57985,0.45165 -11.31293,0.45165c-4.29721,0 -8.66778,-0.78581 -12.98384,-0.84243c-4.48437,-0.05883 -8.97161,0.02281 -13.45711,0c-4.18294,-0.02128 -8.10788,-0.77418 -12.37859,-0.78156c-53.98943,-0.09334 -107.97944,0.02649 -161.96913,0c-1.97227,-0.00097 -3.91741,-0.3522 -5.86176,-0.39078c-4.1725,-0.08279 -9.276,0.22519 -13.68182,-0.18972c-1.842,-0.17346 -3.63171,-0.56563 -5.50109,-0.59184c-12.23034,-0.17151 -24.4693,0.04723 -36.70347,0c-4.5045,-0.01739 -8.64955,-1.06459 -12.77912,-1.89323c-11.47838,-2.30326 -25.84559,-7.23356 -23.64171,-14.79135c0.18791,-0.64441 2.86537,-4.09212 3.66253,-4.59459c1.4847,-0.93585 4.10077,-1.90512 5.87969,-2.73157z" fill="url(#color-5)" stroke="none" stroke-width="0.5"/><path d="M970.01915,304.53534c1.06739,-5.69946 5.3122,-8.26522 15.43747,-9.61684c9.04386,-1.20727 19.73221,-0.84385 29.1368,0c2.48076,0.22259 4.96196,0.6399 7.43351,0.9206c1.24778,0.14172 2.58323,0.7668 3.72676,0.46487c1.81968,-0.48045 2.7293,-1.61548 4.29518,-2.30527c6.44334,-2.8384 19.07506,-2.02917 26.03769,-2.02917c4.01813,0 15.59312,1.70685 18.95313,2.45439c1.34991,0.30033 6.71167,2.79218 8.00306,2.74334c0.97045,-0.0367 4.66183,-2.31631 4.8223,-2.387c1.33363,-0.58749 4.11469,-1.1666 5.47089,-1.52868c7.65664,-2.04417 23.26969,-2.45439 30.8127,-2.45439c3.29418,0 7.22452,0.49542 10.17092,1.28206c6.15323,1.64279 10.07639,5.02674 17.56285,4.64051c7.07666,-0.36509 11.77512,-3.47047 18.28919,-4.59487c10.28368,-1.77508 24.62338,-2.89295 35.14608,-1.17234c6.73709,1.10161 13.47432,3.50652 19.12637,5.66019c0.81791,0.31166 1.85111,-0.42295 2.81188,-0.58005c2.15929,-0.35307 4.41806,-0.45222 6.58665,-0.78156c8.51953,-1.29385 17.07102,-3.67237 26.28026,-3.67237c12.33851,0 24.11221,3.86286 31.8835,8.66762c1.86232,1.15142 2.55274,3.44447 2.95533,4.73156c0.13897,0.44429 1.36205,0.53728 1.9587,0.85571c1.48758,0.79393 3.54669,1.78409 4.53552,2.80489c0.98161,1.01334 1.74711,2.23965 2.00115,3.35826c0.15285,0.67307 -0.57924,1.53199 0.28588,2.02828c1.33827,0.76772 3.5712,1.12121 4.45971,2.05659c1.65212,1.73928 2.85879,3.69778 2.85879,5.64799c0,5.73096 -7.96637,9.69984 -18.29626,9.76949c-6.59333,0.04445 -13.18773,-0.00594 -19.78159,0c-3.6763,0.00331 -7.63621,0.45165 -11.39705,0.45165c-4.32916,0 -8.73223,-0.78581 -13.08039,-0.84243c-4.51772,-0.05883 -9.03832,0.02281 -13.55717,0c-4.21405,-0.02128 -8.16817,-0.77418 -12.47063,-0.78156c-54.39088,-0.09334 -108.78234,0.02649 -163.17348,0c-1.98693,-0.00097 -3.94654,-0.3522 -5.90535,-0.39078c-4.20352,-0.08279 -9.34497,0.22519 -13.78355,-0.18972c-1.85569,-0.17346 -3.65872,-0.56563 -5.542,-0.59184c-12.32128,-0.17151 -24.65125,0.04723 -36.97639,0c-4.53799,-0.01739 -8.71386,-1.06459 -12.87414,-1.89323c-11.56373,-2.30326 -26.03777,-7.23356 -23.8175,-14.79135c0.18931,-0.64441 2.88667,-4.09212 3.68976,-4.59459c1.49574,-0.93585 4.13126,-1.90512 5.92341,-2.73157z" fill="url(#color-6)" stroke="none" stroke-width="0.5"/></g></g></g></g></svg>