<svg version="1.1" xmlns="http://www.w3.org/2000/svg" xmlns:xlink="http://www.w3.org/1999/xlink" width="22.78171" height="48.56827" viewBox="0,0,22.78171,48.56827"><g transform="translate(-166.93604,-270.62287)"><g data-paper-data="{&quot;isPaintingLayer&quot;:true}" fill-rule="nonzero" stroke="none" stroke-linecap="butt" stroke-linejoin="miter" stroke-miterlimit="10" stroke-dasharray="" stroke-dashoffset="0" style="mix-blend-mode: normal"><path d="M168.68269,298.51146c-0.71157,-1.68566 0.77875,-2.49885 0.77875,-2.49885l1.5509,-0.8254c1.57037,-0.56351 3.16672,-1.03373 4.76975,-1.46107c0,0 0.02336,-0.00622 0.0651,-0.01397c0.01909,-1.09747 0.03863,-2.19495 0.05735,-3.29239c1.27234,-0.23865 2.1696,-1.00371 3.32806,-1.49216c-0.01875,1.06826 -0.0752,2.17444 -0.1407,3.29829c2.34095,0.03758 4.68191,0.07517 7.02285,0.11275l1.98145,0.03181c0,0 1.65121,0.02651 1.62116,1.89788c-0.03004,1.87137 -1.68125,1.84486 -1.68125,1.84486c-2.39146,-0.0384 -6.71509,-0.10781 -9.15492,-0.14698c-0.09289,2.07864 -0.11111,4.14191 0.11973,6.06638c0.11463,0.95555 0.79818,1.85964 0.62234,2.80451c-0.09722,0.52238 -0.29911,1.02634 -0.56487,1.50913c0.64298,0.93266 1.35855,1.82086 1.74507,2.91062c0.29082,0.81991 -0.05189,1.77514 0.03411,2.65425c0.11528,1.17848 0.37843,2.33165 0.56764,3.49746l0.01401,1.92017c0,0 -0.01476,1.87153 -1.66617,1.86235c-1.65142,-0.00918 -1.63666,-1.88072 -1.63666,-1.88072l0.03876,-1.2198c-0.20327,-1.28782 -0.4948,-2.56131 -0.60983,-3.86345c-0.05391,-0.6102 0.314,-1.27148 0.10621,-1.83703c-0.17571,-0.47823 -0.45353,-0.889 -0.75785,-1.28224c-0.15875,0.17117 -0.31288,0.33689 -0.4587,0.49689c-1.9302,2.11803 -4.09528,3.75844 -6.0405,5.89294l-1.83686,0.51876c0,0 -1.65121,-0.02651 -1.62116,-1.89788c0.02869,-1.78682 1.53535,-1.84338 1.67144,-1.84485c1.80916,-1.87955 3.77907,-3.42684 5.5344,-5.353c0.10564,-0.11592 2.17351,-2.27684 2.21575,-2.63299c0.07261,-0.61226 -0.5396,-1.09885 -0.62652,-1.70799c-0.11946,-0.83718 0.0097,-1.69719 0.01955,-2.54574c0.00952,-0.82126 0.02066,-1.64252 0.03288,-2.46379c-1.27179,0.35039 -2.53708,0.73503 -3.78429,1.18439l-1.11507,0.62928c0,0 -1.49033,0.81319 -2.20189,-0.87247z" fill="#000000" stroke-width="0.5"/><g><path d="M175.83114,290.54992c-0.78426,0.01927 -1.55879,-0.14775 -2.21009,-0.57109c-0.92953,-0.6042 -0.56943,-2.3334 -0.7623,-3.5204c-0.13961,-0.85925 -0.35797,-5.66464 -0.33316,-5.88428c0.18286,-1.61868 0.66883,-3.41172 1.14498,-5.1673c-0.31723,-0.11023 -0.64125,-0.36352 -0.91252,-0.86722c-0.86763,-1.6109 0.53921,-2.56124 0.53921,-2.56124l1.97907,-1.10495c0.09115,-0.00717 0.19974,-0.01613 0.32272,-0.02635c0.14773,-0.04113 0.31348,-0.05799 0.49915,-0.04134c1.58344,-0.12944 4.31147,-0.32756 4.77821,-0.01873c0.97755,0.64683 1.27735,2.16506 1.60118,3.38866c0.70495,2.66362 -0.25439,4.47731 -0.86057,6.98237c-0.65222,2.69547 -0.37821,2.833 -1.6631,5.6842c-0.33602,0.74565 -0.55861,1.69211 -0.98274,2.37325c0.0077,0.02429 0.01488,0.04812 0.02156,0.0714c-1.10166,0.59191 -1.90517,1.47093 -3.11832,1.81678c-0.01439,-0.1846 -0.02881,-0.36918 -0.04326,-0.55377zM177.48379,274.08942c-0.75948,3.31009 -1.73965,6.42425 -1.50643,9.90146c0.04942,0.73675 0.22871,1.47442 0.17406,2.20839c-0.02647,0.35553 -0.55334,0.63606 -0.40981,0.95761c0.1141,0.25561 0.52467,-0.1498 0.66753,-0.38028c0.28699,-0.46302 0.36528,-1.05595 0.5495,-1.58319c0.33312,-0.95345 0.72083,-1.88346 1.00249,-2.85889c0.52443,-1.81616 1.0652,-3.63872 1.36916,-5.52264c0.0981,-0.60799 -0.04179,-1.24045 -0.07247,-1.86033c-0.01629,-0.3289 0.21449,-0.90276 -0.06837,-0.98569c-0.56496,-0.16562 -1.13368,-0.05197 -1.70567,0.12356z" fill="#000000" stroke-width="0.5"/><path d="M179.2018,273.9174c0.28286,0.08293 0.05464,0.6575 0.07092,0.9864c0.03068,0.61989 0.17758,1.25512 0.07947,1.8631c-0.30397,1.88391 -0.85463,3.79999 -1.37906,5.61614c-0.28166,0.97543 -0.68733,1.90654 -1.02044,2.85999c-0.18422,0.52724 -0.2653,1.11976 -0.55229,1.58278c-0.14286,0.23049 -0.55763,0.63495 -0.67173,0.37934c-0.14354,-0.32155 0.38457,-0.60176 0.41104,-0.9573c0.05465,-0.73396 -0.13327,-1.47457 -0.18269,-2.21131c-0.23322,-3.47721 0.76704,-6.68704 1.52653,-9.99713c0.57198,-0.17553 1.15329,-0.28763 1.71826,-0.12201z" data-paper-data="{&quot;noHover&quot;:false,&quot;origItem&quot;:[&quot;Path&quot;,{&quot;applyMatrix&quot;:true,&quot;segments&quot;:[[[309.69686,131.88636],[0.584,-0.1301],[-1.01689,3.24028]],[[307.41808,141.63907],[0.04036,-3.48479],[-0.00855,0.73835]],[[307.4183,143.8543],[0.11208,-0.72741],[-0.05429,0.35236]],[[306.93461,144.7768],[-0.11786,-0.33182],[0.09369,0.26378]],[[307.62992,144.45008],[-0.16051,0.21856],[0.32244,-0.43907]],[[308.30196,142.91489],[-0.22502,0.51116],[0.40691,-0.92437]],[[309.52571,140.14349],[-0.35734,0.95032],[0.66533,-1.7694]],[[311.32403,134.74532],[-0.45087,1.85425],[0.14551,-0.59841]],[[311.39777,132.88504],[-0.01806,0.62038],[0.00958,-0.32917]],[[311.40696,131.89703],[0.27548,0.10487],[-0.55022,-0.20944]]],&quot;closed&quot;:true,&quot;fillColor&quot;:[0,0,0],&quot;strokeWidth&quot;:0.5}]}" fill="#ffffff" stroke-width="0.25"/></g></g></g></svg>