<svg version="1.1" xmlns="http://www.w3.org/2000/svg" xmlns:xlink="http://www.w3.org/1999/xlink" width="213.02836" height="40.95238" viewBox="0,0,213.02836,40.95238"><defs><linearGradient x1="399.63037" y1="188.6294" x2="399.31589" y2="190.59065" gradientUnits="userSpaceOnUse" id="color-1"><stop offset="0" stop-color="#d8b000" stop-opacity="0"/><stop offset="1" stop-color="#d8b000"/></linearGradient><linearGradient x1="390.65011" y1="170.02086" x2="413.98221" y2="173.76206" gradientUnits="userSpaceOnUse" id="color-2"><stop offset="0" stop-color="#bf9c00" stop-opacity="0"/><stop offset="1" stop-color="#bf9c00"/></linearGradient><linearGradient x1="504.04205" y1="188.70008" x2="503.72758" y2="190.66132" gradientUnits="userSpaceOnUse" id="color-3"><stop offset="0" stop-color="#bdbdbd" stop-opacity="0"/><stop offset="1" stop-color="#bdbdbd"/></linearGradient><linearGradient x1="495.0618" y1="170.09154" x2="518.3939" y2="173.83273" gradientUnits="userSpaceOnUse" id="color-4"><stop offset="0" stop-color="#bdbdbd" stop-opacity="0"/><stop offset="1" stop-color="#bdbdbd"/></linearGradient></defs><g transform="translate(-310.02801,-161.4127)"><g data-paper-data="{&quot;isPaintingLayer&quot;:true}" fill-rule="nonzero" stroke-linejoin="miter" stroke-miterlimit="10" stroke-dasharray="" stroke-dashoffset="0" style="mix-blend-mode: normal"><path d="M434.45307,183.12421h62.28571" fill="none" stroke-opacity="0.36471" stroke="#000000" stroke-width="23.5" stroke-linecap="round"/><path d="M329.78209,183.46516h62.28571" fill="none" stroke-opacity="0.36471" stroke="#000000" stroke-width="23.5" stroke-linecap="round"/><path d="M310.02801,202.36508v-40.95238h209.94398v40.95238z" fill="none" stroke="none" stroke-width="0" stroke-linecap="butt"/><g><path d="M395.83004,189.73601c0,0 -4.62265,-7.33088 -5.39901,-10.93395c-0.82569,-3.83197 0.64856,-11.04762 0.64856,-11.04762l23.2163,3.87246c0,0 -0.89226,6.88898 -2.20057,10.01938c-1.42105,3.40015 -9.28714,9.24587 -9.28714,9.24587z" fill="#ffde00" stroke="none" stroke-width="0" stroke-linecap="butt"/><path d="M399.27908,190.28941l1.61903,-9.71008l1.78119,-10.75683l11.5843,2.00585c0,0 -0.8815,6.82186 -2.1847,9.92039c-1.41549,3.36552 -9.27071,9.1434 -9.27071,9.1434z" fill="#ffd100" stroke="none" stroke-width="0" stroke-linecap="butt"/><path d="M393.54165,195.10207l2.58838,-5.38901l6.55521,1.0511l0.36633,6.07007z" fill="#ffde00" stroke-opacity="0.36471" stroke="#000000" stroke-width="0" stroke-linecap="butt"/><path d="M398.11899,195.83602l1.25333,-5.60308l3.31292,0.53121l0.36633,6.07007z" fill="#ffd100" stroke-opacity="0.36471" stroke="#000000" stroke-width="0" stroke-linecap="butt"/><path d="M395.80421,190.02756l-1.25884,-2.76847l10.2688,1.71593l-1.9866,2.1787z" fill="url(#color-1)" stroke="none" stroke-width="0" stroke-linecap="butt"/><path d="M390.61005,170.27071l0.08013,-0.49971l23.3321,3.7412l-0.08013,0.49971z" fill="url(#color-2)" stroke="none" stroke-width="0" stroke-linecap="butt"/><path d="M395.26306,184.94629c0,0 -6.99528,-1.51125 -8.36472,-5.95098c-0.74763,-2.42381 -0.19842,-7.70023 -0.19842,-7.70023l5.20746,0.83499" fill="none" stroke="#ffde00" stroke-width="2.25" stroke-linecap="round"/><path d="M391.975,172.14092c0.10181,-0.63496 0.69909,-1.06716 1.33405,-0.96535c0.63496,0.10181 1.06716,0.69909 0.96535,1.33405c-0.10181,0.63496 -0.69909,1.06716 -1.33405,0.96535c-0.63496,-0.10181 -1.06716,-0.69909 -0.96535,-1.33405z" fill-opacity="0.82353" fill="#ffffff" stroke="none" stroke-width="0" stroke-linecap="butt"/><path d="M412.08515,175.64297l5.20746,0.83499c0,0 -1.12801,5.18361 -2.59597,7.25216c-2.68888,3.789 -9.80597,3.03739 -9.80597,3.03739" data-paper-data="{&quot;index&quot;:null}" fill="none" stroke="#ffd100" stroke-width="2.25" stroke-linecap="round"/><path d="M410.25345,176.25104c0.07786,-0.48556 0.65571,-0.79664 1.29067,-0.69483c0.63496,0.10181 1.08658,0.57797 1.00873,1.06353c-0.07786,0.48556 -0.65571,0.79665 -1.29067,0.69484c-0.63496,-0.10181 -1.08658,-0.57798 -1.00873,-1.06353z" fill-opacity="0.82353" fill="#ffffff" stroke="none" stroke-width="0" stroke-linecap="butt"/></g><path d="M500.24172,189.80668c0,0 -4.62265,-7.33088 -5.39901,-10.93395c-0.82569,-3.83197 0.64855,-11.04762 0.64855,-11.04762l23.2163,3.87246c0,0 -0.89226,6.88898 -2.20057,10.01939c-1.42104,3.40015 -9.28714,9.24587 -9.28714,9.24587z" fill="#e6e6e6" stroke="none" stroke-width="0" stroke-linecap="butt"/><path d="M503.69076,190.36009l1.61903,-9.71008l1.78118,-10.75683l11.58431,2.00585c0,0 -0.88151,6.82187 -2.1847,9.92039c-1.4155,3.36552 -9.27071,9.14341 -9.27071,9.14341z" fill="#d3d3d3" stroke="none" stroke-width="0" stroke-linecap="butt"/><path d="M497.95333,195.17274l2.58839,-5.38901l6.55521,1.0511l0.36633,6.07007z" fill="#e6e6e6" stroke-opacity="0.36471" stroke="#000000" stroke-width="0" stroke-linecap="butt"/><path d="M502.53067,195.9067l1.25333,-5.60307l3.31293,0.53121l0.36633,6.07007z" fill="#d3d3d3" stroke-opacity="0.36471" stroke="#000000" stroke-width="0" stroke-linecap="butt"/><path d="M500.21589,190.09824l-1.25883,-2.76846l10.2688,1.71593l-1.9866,2.1787z" fill="url(#color-3)" stroke="none" stroke-width="0" stroke-linecap="butt"/><path d="M495.02173,170.34139l0.08013,-0.49971l23.3321,3.7412l-0.08012,0.49971z" fill="url(#color-4)" stroke="none" stroke-width="0" stroke-linecap="butt"/><path d="M499.67474,185.01698c0,0 -6.99528,-1.51126 -8.36472,-5.95099c-0.74763,-2.42381 -0.19842,-7.70023 -0.19842,-7.70023l5.20746,0.83499" fill="none" stroke="#e6e6e6" stroke-width="2.25" stroke-linecap="round"/><path d="M496.38669,172.2116c0.10181,-0.63496 0.69909,-1.06716 1.33405,-0.96535c0.63496,0.10181 1.06716,0.69909 0.96535,1.33405c-0.10181,0.63496 -0.69908,1.06716 -1.33405,0.96535c-0.63496,-0.10181 -1.06716,-0.69909 -0.96535,-1.33405z" fill-opacity="0.82353" fill="#ffffff" stroke="none" stroke-width="0" stroke-linecap="butt"/><path d="M516.49683,175.71364l5.20745,0.83499c0,0 -1.128,5.18361 -2.59596,7.25216c-2.68888,3.789 -9.80597,3.0374 -9.80597,3.0374" data-paper-data="{&quot;index&quot;:null}" fill="none" stroke="#d3d3d3" stroke-width="2.25" stroke-linecap="round"/><path d="M514.66513,176.32172c0.07785,-0.48556 0.65571,-0.79664 1.29067,-0.69483c0.63496,0.10181 1.08659,0.57796 1.00873,1.06352c-0.07785,0.48556 -0.65571,0.79665 -1.29067,0.69484c-0.63496,-0.10181 -1.08658,-0.57797 -1.00873,-1.06353z" fill-opacity="0.82353" fill="#ffffff" stroke="none" stroke-width="0" stroke-linecap="butt"/></g></g></svg>