<svg version="1.1" xmlns="http://www.w3.org/2000/svg" xmlns:xlink="http://www.w3.org/1999/xlink" width="26.39725" height="55.74897" viewBox="0,0,26.39725,55.74897"><g transform="translate(-167.75985,-129.86521)"><g data-paper-data="{&quot;isPaintingLayer&quot;:true}" fill-rule="nonzero" stroke="none" stroke-linecap="butt" stroke-linejoin="miter" stroke-miterlimit="10" stroke-dasharray="" stroke-dashoffset="0" style="mix-blend-mode: normal"><path d="M172.00873,182.18158c0.17738,0.19277 1.28257,1.49842 -0.02308,2.80406c-1.41421,1.41421 -2.82843,0 -2.82843,0l-0.91572,-1.44256c-0.24686,-1.50825 -0.80442,-3.91156 -0.23211,-5.37988c0.33772,-0.86645 1.22266,-1.40223 1.86212,-2.07742c1.28199,-1.35362 3.33287,-3.03787 5.4885,-4.26736c0.1388,-1.94745 0.06196,-3.88606 -0.61451,-5.82884c0,0 -0.47577,-1.4273 0.63592,-2.21867c-0.18159,-0.30887 -0.41962,-0.60841 -0.48557,-0.95645c-0.15745,-0.83087 -0.06758,-1.69587 -0.09638,-2.54399c-0.02384,-0.70204 -0.0465,-1.40414 -0.06832,-2.10628c0.07012,-0.47791 0.10643,-0.96682 0.10643,-1.4642c0,-0.93846 -0.12927,-1.84673 -0.37098,-2.70797c0.02556,-0.0081 0.05111,-0.01619 0.07668,-0.02427l-0.00001,0.00001c0,0 0.02305,-0.00728 0.0644,-0.01692c-0.04071,-1.44551 -0.08063,-2.89104 -0.12267,-4.33643c-0.78426,-0.01921 -1.54967,-0.22403 -2.17943,-0.6788c-0.89878,-0.64906 -0.45431,-2.35851 -0.58873,-3.55354c-0.0973,-0.86506 -0.07973,-5.67539 -0.04417,-5.89354c0.26202,-1.60777 0.83534,-3.37481 1.39701,-5.10493c-0.31144,-0.12565 -0.62265,-0.39453 -0.86889,-0.91092c-0.78758,-1.65151 0.66417,-2.53171 0.66417,-2.53171l2.03088,-1.00656c0.09139,-0.00269 0.20029,-0.00632 0.32363,-0.0105c0.14957,-0.03384 0.31594,-0.04255 0.50057,-0.01681c1.58789,-0.05163 4.32235,-0.11572 4.77338,0.21562c0.94465,0.69399 1.16963,2.22509 1.43306,3.4631c0.57347,2.69499 -0.47367,4.45945 -1.20197,6.93176c-0.78363,2.66024 -0.51669,2.81105 -1.93987,5.5958c-0.37219,0.72827 -0.64092,1.66268 -1.09795,2.3222c0.07649,0.28989 0.08306,0.51277 0.08306,0.51277c0.03213,1.0892 0.02616,2.22019 0.01159,3.37003c2.27912,-0.06724 4.55825,-0.13446 6.83736,-0.2017c0.24855,-0.32735 0.59565,-0.57579 0.99709,-0.70113c1.26153,-1.49546 2.99976,-3.17068 4.20235,-3.50441c1.72388,-0.47838 3.2901,1.10905 2.57148,2.90689c-0.28435,0.71137 -2.14172,2.28992 -3.9085,3.37301c-0.12846,1.56033 -1.58786,1.60338 -1.58786,1.60338c-1.61192,0.04755 -4.10192,0.12101 -6.30076,0.18587c1.9506,1.22639 3.85132,2.41751 6.36628,2.4697v0.00001c2.41123,0.05004 7.19833,-2.18559 7.19833,1.28033c0,1.15157 -2.75496,2.71406 -3.81954,2.71967c-4.20843,0.02218 -8.67948,-0.32512 -11.9844,-3.0859c-0.11425,-0.09544 -0.30958,-0.24194 -0.54469,-0.42473c0.05723,1.08946 0.1581,2.15607 0.32846,3.17968c0.0679,0.40792 0.24029,0.80156 0.40432,1.1934c0.12687,0.07586 0.24089,0.1867 0.35321,0.35313c0.04843,0.04638 0.09452,0.09518 0.1381,0.14619c0.17625,-0.00662 0.35343,0.00075 0.53134,0.02082l-0.00001,-0.00002c1.07379,0.12112 2.1737,0.70472 3.24993,1.46509c-0.16633,0.1281 -0.33419,0.26437 -0.50264,0.40042c-0.14352,-0.01229 -0.28719,-0.02393 -0.431,-0.03496l-0.08479,-0.03957c2.58208,1.86298 4.37199,4.69639 1.37403,7.78463c-0.64897,0.66851 -1.88264,0.04871 -2.77841,0.30495c-0.40181,0.11494 -0.76909,0.30634 -1.12052,0.53335c-0.07826,0.72345 -0.17918,1.44262 -0.2977,2.15373c-0.21759,1.30554 -0.05307,2.66265 -0.32993,3.95692c-0.06519,0.30474 -0.80615,0.50828 -0.58579,0.72864c0.22036,0.22036 0.42252,-0.52742 0.72864,-0.58579c0.75566,-0.14408 1.53855,0.00454 2.30782,0.00681l2.30669,0.37754c0,0 1.97279,0.3288 1.64399,2.30159l0.00001,0.00001c-0.3288,1.97279 -2.30159,1.64399 -2.30159,1.64399l-1.97902,-0.33675c-1.2578,0.00433 -4.82998,0.12602 -5.53497,-0.57897c-0.58144,-0.58144 -0.67214,-4.74628 -0.57897,-5.86489c0.02759,-0.33125 0.06052,-0.66187 0.09699,-0.99191c-1.31649,0.75845 -2.62573,1.66096 -3.04176,2.63653c-0.3299,0.77358 0.04025,1.63973 0.30382,2.48764zM180.83058,170.16323c0.47123,0.04498 -0.69382,-0.64423 -1.03512,-0.97224c-0.14058,-0.1351 -0.28817,-0.26423 -0.44177,-0.38685c0.04356,0.47162 0.072,0.94547 0.08676,1.42049c0.48483,-0.07919 0.95127,-0.10328 1.39014,-0.0614zM176.94288,133.25477c-0.92091,3.26886 -2.05262,6.3312 -1.99021,9.81566c0.01323,0.73828 0.15612,1.48386 0.06554,2.21426c-0.04388,0.3538 -0.58387,0.60816 -0.45628,0.93637c0.10142,0.2609 0.53138,-0.12388 0.68538,-0.34708c0.30936,-0.44839 0.41663,-1.03676 0.62648,-1.55434c0.37948,-0.93597 0.81233,-1.84584 1.1415,-2.80628c0.61287,-1.78825 1.24237,-3.58211 1.63836,-5.44885c0.1278,-0.60244 0.0191,-1.24101 0.01885,-1.86165c-0.00013,-0.32931 0.2585,-0.89115 -0.01995,-0.98786c-0.55616,-0.19313 -1.12977,-0.1075 -1.70967,0.03976z" fill="#000000" stroke-width="0.5"/><path d="M178.66726,133.16722c0.27845,0.0967 0.02232,0.65939 0.02246,0.98869c0.00024,0.62064 0.11581,1.26233 -0.01199,1.86476c-0.396,1.86674 -1.03996,3.7535 -1.65283,5.54175c-0.32916,0.96044 -0.78,1.87053 -1.15947,2.8065c-0.20985,0.51757 -0.31989,1.1054 -0.62925,1.55379c-0.154,0.2232 -0.5881,0.60685 -0.68952,0.34594c-0.1276,-0.3282 0.41361,-0.58218 0.45749,-0.93599c0.09058,-0.7304 -0.06079,-1.47933 -0.07401,-2.21761c-0.06241,-3.48446 1.09407,-6.64138 2.01497,-9.91024c0.57991,-0.14727 1.16601,-0.23073 1.72217,-0.0376z" data-paper-data="{&quot;noHover&quot;:false,&quot;origItem&quot;:[&quot;Path&quot;,{&quot;applyMatrix&quot;:true,&quot;segments&quot;:[[[309.69686,131.88636],[0.584,-0.1301],[-1.01689,3.24028]],[[307.41808,141.63907],[0.04036,-3.48479],[-0.00855,0.73835]],[[307.4183,143.8543],[0.11208,-0.72741],[-0.05429,0.35236]],[[306.93461,144.7768],[-0.11786,-0.33182],[0.09369,0.26378]],[[307.62992,144.45008],[-0.16051,0.21856],[0.32244,-0.43907]],[[308.30196,142.91489],[-0.22502,0.51116],[0.40691,-0.92437]],[[309.52571,140.14349],[-0.35734,0.95032],[0.66533,-1.7694]],[[311.32403,134.74532],[-0.45087,1.85425],[0.14551,-0.59841]],[[311.39777,132.88504],[-0.01806,0.62038],[0.00958,-0.32917]],[[311.40696,131.89703],[0.27548,0.10487],[-0.55022,-0.20944]]],&quot;closed&quot;:true,&quot;fillColor&quot;:[0,0,0],&quot;strokeWidth&quot;:0.5}]}" fill="#ffffff" stroke-width="0.25"/></g></g></svg>