<svg version="1.1" xmlns="http://www.w3.org/2000/svg" xmlns:xlink="http://www.w3.org/1999/xlink" width="13.69963" height="333.84664" viewBox="0,0,13.69963,333.84664"><defs><radialGradient cx="187.09373" cy="485.18555" r="159.32398" gradientUnits="userSpaceOnUse" id="color-1"><stop offset="0" stop-color="#261667"/><stop offset="1" stop-color="#181d44"/></radialGradient></defs><g transform="translate(-180.33647,-316.71647)"><g data-paper-data="{&quot;isPaintingLayer&quot;:true}" fill-rule="nonzero" stroke="none" stroke-linecap="butt" stroke-linejoin="miter" stroke-miterlimit="10" stroke-dasharray="" stroke-dashoffset="0" style="mix-blend-mode: normal"><path d="M180.55257,650.56311v-330.75512h13.08232v330.75512z" fill="url(#color-1)" stroke-width="0"/><g stroke-width="0.5"><path d="M189.25435,324.88381c-0.1784,-0.03469 -0.25584,-0.17246 -0.28855,-0.3027c-0.33957,-0.02157 -0.33957,-0.49454 -0.33957,-0.49454v-0.24553c0.00008,-0.34308 -0.00398,-0.68635 -0.01334,-1.02929c-0.04714,-0.08313 -0.06554,-0.18012 -0.07234,-0.25399c-0.04046,0.10803 -0.11589,0.21513 -0.25649,0.23909c-0.02396,0.34817 -0.05969,0.6903 -0.10256,1.0346c0,0.08504 0,0.17009 0,0.25513l0.04015,0.28686c0,0 0.04542,0.37089 -0.18031,0.52022c-0.01564,0.13677 -0.08153,0.4248 -0.35904,0.4248c-0.01299,0 -0.02552,-0.00063 -0.03759,-0.00184c0.01254,0.34692 -0.25321,0.46749 -0.25321,0.46749l-0.38254,0.11857c0,0.04938 0,0.09875 0,0.14813v0.49105c0,0 0,0.49531 -0.3639,0.49531c-0.3639,0 -0.3639,-0.49531 -0.3639,-0.49531c0,-0.26808 0,-0.54368 0,-0.82492c-0.0138,0.24439 -0.0268,0.49009 -0.03978,0.73744l0.00092,0.27162c0,0 0,0.49531 -0.3639,0.49531c-0.3639,0 -0.3639,-0.49531 -0.3639,-0.49531l0.00092,-0.3422c0.02928,-0.55789 0.05922,-1.10783 0.09769,-1.65307c-0.05325,0.0877 -0.13872,0.15806 -0.27588,0.15806c-0.3639,0 -0.3639,-0.49531 -0.3639,-0.49531l0.00091,-0.20659c-0.03782,0.01687 -0.08185,0.02669 -0.13308,0.02669c-0.01375,0 -0.02698,-0.00071 -0.03971,-0.00207l-0.00508,0.05926c0,0 -0.04514,0.49148 -0.40623,0.43004c-0.04377,-0.00745 -0.08157,-0.02121 -0.11421,-0.03965c-0.00945,0.05316 -0.01904,0.10628 -0.02879,0.15936l-0.03919,0.32959c0,0 -0.05983,0.48857 -0.41878,0.40714c-0.35895,-0.08143 -0.29913,-0.56999 -0.29913,-0.56999l0.05101,-0.40699c0.12796,-0.69667 0.23008,-1.40024 0.34361,-2.09956c-0.15017,-0.046 -0.215,-0.19506 -0.243,-0.31521c-0.06325,0.47772 -0.1422,0.95576 -0.22864,1.43232c-0.06593,0.58505 -0.10208,1.17621 -0.10208,1.77778v0.92074c0,0 0,0.49531 -0.3639,0.49531c-0.03073,0 -0.05887,-0.00354 -0.08463,-0.01c-0.0445,0.1264 -0.13544,0.25553 -0.32125,0.25553c-0.3639,0 -0.3639,-0.49531 -0.3639,-0.49531l0.01087,-0.48842c0.15708,-0.85325 0.34489,-1.72673 0.50625,-2.60548c0.04413,-0.38995 0.10048,-0.77738 0.1674,-1.16338c-0.05589,0.02947 -0.12542,0.04 -0.21159,0.01655c-0.04377,-0.01191 -0.0811,-0.02968 -0.1129,-0.05167c-0.01524,0.17528 -0.02868,0.35113 -0.03936,0.52785c0,0 -0.01321,0.21566 -0.1269,0.35c-0.05639,0.59848 -0.09757,1.20112 -0.09734,1.81861v0.18415c0,0 0,0.49531 -0.3639,0.49531c-0.02848,0 -0.05473,-0.00304 -0.07893,-0.00863c-0.0344,0.09158 -0.09817,0.17715 -0.21188,0.22874c-0.34523,0.15662 -0.46031,-0.31326 -0.46031,-0.31326l-0.05569,-0.23699c-0.00333,-0.02127 -0.00662,-0.04249 -0.00986,-0.06366c-0.03722,0.01615 -0.08037,0.02551 -0.13039,0.02551c-0.3639,0 -0.3639,-0.49531 -0.3639,-0.49531l0.0018,-0.29481c0.04489,-0.60537 0.09439,-1.1961 0.13538,-1.78667c-0.03143,0.00282 -0.06591,0.00057 -0.10369,-0.008c-0.07836,-0.01777 -0.13676,-0.05495 -0.18019,-0.10222c-0.00397,0.17344 -0.00789,0.34749 -0.01085,0.52171c0.11869,0.14628 0.11869,0.38097 0.11869,0.38097c0,0.65474 0,1.30948 0,1.96423v0.06139c0,0 0,0.01424 -0.00177,0.0379c0.01105,0.07043 0.02303,0.14054 0.036,0.21027l0.07504,0.24309c0,0 0.1215,0.41344 -0.15392,0.6131c-0.03428,-1.2452 -0.09744,-2.552 -0.17885,-3.8666c0.02874,-1.00813 0.04661,-1.88265 0.07292,-2.55391c0.02527,-0.64456 0.02564,-1.26596 0.01361,-1.88057c0.13307,-0.13027 0.26242,-0.2642 0.38786,-0.40162c0.06477,0.13713 0.06477,0.29385 0.06477,0.29385v0.12276c-0.00009,0.1131 -0.00093,0.22604 -0.00233,0.33886c0.02552,-0.04221 0.05803,-0.08295 0.09884,-0.11326l-0.0113,-0.18447c0,0 -0.03022,-0.49359 0.33243,-0.53473c0.36265,-0.04113 0.39287,0.45246 0.39287,0.45246l0.00602,0.09835c0.26414,0.00527 0.33231,0.27532 0.3499,0.41435c0.05128,-0.20939 0.10257,-0.4188 0.15385,-0.62819l-0.01868,-0.15028c0,0 0,-0.49531 0.3639,-0.49531c0.19156,0 0.28228,0.13724 0.32525,0.26724c0.0599,-0.06088 0.14383,-0.09922 0.26107,-0.07927c0.21935,0.03732 0.2888,0.23333 0.30952,0.38146c0.04175,-0.2952 0.07374,-0.58578 0.09543,-0.86541l-0.00223,-0.00668c0,0 0,-0.49531 0.3639,-0.49531c0.15806,0 0.24747,0.09344 0.29804,0.19916c0.00848,-0.05241 0.01679,-0.10484 0.02492,-0.15735c0.235,0.0329 0.47328,0.04972 0.7143,0.04972c0.00686,0 0.01372,-0.00001 0.02057,-0.00004c-0.06745,0.45264 -0.14883,0.90123 -0.23524,1.34836c0.00222,-0.00126 0.00446,-0.00251 0.00672,-0.00374c0.01112,-0.03995 0.07015,-0.23013 0.20483,-0.30621v-0.08216c0,0 0,-0.49531 0.3639,-0.49531c0.1004,0 0.1731,0.0377 0.22574,0.09229l0.10321,-0.19276c0,0 0.25732,-0.35023 0.51464,0c0.22112,0.30095 0.06222,0.60191 0.01313,0.68065c-0.03276,0.12459 -0.06428,0.24833 -0.09452,0.37154c0.2891,0.13204 0.22601,0.56145 0.22601,0.56145l-0.04298,0.2912c-0.038,0.30584 -0.05999,0.60986 -0.07246,0.91376c0.11178,-0.68911 0.20979,-1.37165 0.30253,-2.0659l0.0463,-0.31544c0,0 0.07137,-0.48568 0.4282,-0.38855c0.1394,0.03795 0.21346,0.1352 0.25194,0.23962c0.22138,0.03227 0.28526,0.26741 0.3037,0.40046c0.16575,0.15302 0.15279,0.38929 0.13168,0.51236c0.04871,-0.00683 0.10452,0.00075 0.16815,0.02963c0.06348,0.0288 0.11139,0.06819 0.14732,0.1133c0.00681,-0.03099 0.01364,-0.06197 0.02048,-0.09296l0.03334,-0.35709c0,0 0.05146,-0.49033 0.41171,-0.42028c0.36025,0.07004 0.30878,0.56037 0.30878,0.56037l-0.00129,0.01138c0.06533,-0.03642 0.14835,-0.046 0.2522,0.00112c0.31155,0.14135 0.24823,0.53782 0.23291,0.61383c0.04379,0.09697 0.05616,0.20192 0.05965,0.25345c0.15869,0.15824 0.13444,0.45527 0.13444,0.45527l-0.04343,0.52513c0.00047,0.49345 -0.01017,0.97747 -0.03155,1.46245c0.0346,-0.01331 0.0741,-0.02092 0.11918,-0.02092c0.3639,0 0.3639,0.49531 0.3639,0.49531c0,0.71115 0.00369,1.36131 -0.09726,2.06137l-0.04169,0.40258c0,0 -0.05146,0.49033 -0.41171,0.42029zM187.32334,323.98378l0.0319,0.47746c0.03492,-0.23958 0.06834,-0.47457 0.09843,-0.70813c0,-0.26224 0,-0.52449 0,-0.78673c-0.05783,0.13787 -0.11757,0.27545 -0.17866,0.414c0.02008,0.18977 0.03595,0.38849 0.04833,0.60341zM186.15551,320.28219c-0.00541,0.23504 -0.0064,0.47034 -0.00598,0.70669c0.03199,-0.05296 0.07502,-0.10396 0.1316,-0.13495c0,-0.10023 0,-0.19991 0,-0.29895c-0.07743,-0.0754 -0.11171,-0.17906 -0.12562,-0.27278zM187.42295,320.27333c-0.01112,-0.00336 -0.02181,-0.00709 -0.03209,-0.01117c-0.00047,0.10712 0.00004,0.21441 0.0012,0.32171c0.0115,-0.03756 0.02871,-0.08391 0.05342,-0.12924c0.00173,-0.05798 0.0039,-0.11587 0.00658,-0.17367c-0.00949,-0.00211 -0.01919,-0.00464 -0.02911,-0.00764z" fill="#45d9a3"/><path d="M180.38125,322.29887c0.02878,-0.01587 0.06139,-0.02812 0.09832,-0.0357c0.15158,-0.03112 0.24849,0.04251 0.3099,0.13825c0.03685,-0.03513 0.08285,-0.06375 0.14013,-0.08204c0.35524,-0.11344 0.43418,0.39704 0.43418,0.39704c0.11679,0.75632 0.21205,1.42669 0.213,2.19926l0.03317,0.56647c0,0 0.03022,0.52112 -0.33243,0.56455c-0.36265,0.04343 -0.39287,-0.4777 -0.39287,-0.4777l-0.03505,-0.60985c0.00008,-0.05947 -0.00046,-0.11811 -0.00158,-0.17607c-0.02484,0.01344 -0.05248,0.02435 -0.08321,0.03215c-0.12678,0.03215 -0.21662,-0.01152 -0.2798,-0.0814c0.00151,0.319 0.00076,0.63856 0.00064,0.95851c-0.03612,-0.96522 -0.08739,-1.95846 -0.14918,-2.95618c0.00666,-0.23368 0.01274,-0.46017 0.01847,-0.67863c0.00943,0.08038 0.01818,0.16084 0.02631,0.24136z" fill="#34a37b"/><path d="M180.51793,326.20872c0,0 0.00541,0.0778 -0.00888,0.17624c-0.00534,-0.17775 -0.01125,-0.35668 -0.01769,-0.53663z" fill="#34a37b"/><path d="M183.66897,325.01923c-0.08863,0 -0.15568,-0.03102 -0.2064,-0.07795c-0.03818,0.01827 -0.08272,0.02894 -0.13468,0.02894c-0.05442,0 -0.1007,-0.0117 -0.14007,-0.03159c-0.03694,0.14817 -0.12543,0.32567 -0.33744,0.32567c-0.3639,0 -0.3639,-0.52293 -0.3639,-0.52293v-0.19605c0,-0.69367 0.00146,-1.37813 -0.03318,-2.0703c0,0 -0.02593,-0.52159 0.33705,-0.55885c0.11917,-0.01223 0.20201,0.03577 0.25953,0.10577c0.03143,-0.02146 0.06802,-0.03854 0.1106,-0.04966c0.0924,-0.02414 0.16529,-0.00778 0.22259,0.02977c0.05233,-0.10092 0.13978,-0.18525 0.28591,-0.18525c0.3639,0 0.3639,0.52293 0.3639,0.52293c0,0.57182 0,1.14364 0,1.71546v0.44112c0,0 0,0.52293 -0.3639,0.52293z" fill="#34a37b"/><path d="M184.1251,321.89619c0.02526,-0.55721 0.09599,-1.11682 0.2244,-1.64385c0,0 0.1224,-0.49246 0.4651,-0.31658c0.3427,0.17589 0.22031,0.66834 0.22031,0.66834c-0.09784,0.38443 -0.16529,0.79056 -0.1849,1.19892l0.0929,0.50792c0,0 0.04346,0.24983 -0.05261,0.44268c0.06589,0.57522 0.11034,1.15238 0.16357,1.73388l0.03485,0.54962c0,0 0.03294,0.52078 -0.32946,0.56812c-0.36241,0.04734 -0.39536,-0.47344 -0.39536,-0.47344l-0.03337,-0.52867c-0.06938,-0.75622 -0.12112,-1.50544 -0.23291,-2.25186c0,0 -0.03102,-0.20801 0.03884,-0.38712z" fill="#34a37b"/><path d="M187.42888,325.39973c-0.35583,0.10957 -0.43207,-0.40176 -0.43207,-0.40176l-0.10365,-0.69551c-0.03451,-0.28086 -0.06902,-0.56172 -0.10353,-0.84258c0,0 -0.06324,-0.51497 0.29513,-0.60585c0.35837,-0.09088 0.42161,0.4241 0.42161,0.4241c0.0337,0.27463 0.06741,0.54924 0.10111,0.82386l0.10099,0.67685c0,0 0.07625,0.51133 -0.27958,0.62089z" fill="#34a37b"/><path d="M188.6259,322.43776c0,0 0,-0.52293 0.3639,-0.52293c0.3639,0 0.3639,0.52293 0.3639,0.52293c-0.00793,0.83048 -0.15786,1.31149 -0.41361,2.04734l-0.03411,0.09802c0,0 -0.0548,0.15748 -0.16438,0.24399c-0.00109,0.21543 -0.00293,0.43233 -0.00332,0.6515l0.06382,0.49255c0,0 0.0651,0.51449 -0.29294,0.60804c-0.35803,0.09355 -0.42313,-0.42095 -0.42313,-0.42095l-0.07262,-0.58573c-0.00149,-0.93959 0.0443,-1.86142 -0.09571,-2.78015c0,0 -0.07625,-0.51133 0.27958,-0.62089c0.3141,-0.09672 0.41035,0.29038 0.4286,0.38249c0.00053,-0.0376 0.00053,-0.0763 0.00001,-0.11623z" fill="#34a37b"/><path d="M186.15885,326.19555c-0.3639,0 -0.3639,-0.52293 -0.3639,-0.52293l0.00126,-0.15263c-0.01137,-0.19605 -0.02274,-0.3921 -0.03411,-0.58816c0,0 -0.03022,-0.52112 0.33243,-0.56455c0.36265,-0.04343 0.39287,0.4777 0.39287,0.4777c0.01137,0.19605 0.02274,0.3921 0.03411,0.58816l0.00126,0.23948c0,0 0,0.52293 -0.3639,0.52293z" fill="#34a37b"/><path d="M182.03179,322.71563c-0.3639,0 -0.3639,-0.52293 -0.3639,-0.52293v-0.14704c0.00021,-0.16178 -0.00311,-0.32363 -0.00945,-0.48531c-0.1115,-0.11462 -0.14827,-0.30834 -0.14827,-0.30834l-0.09118,-0.4901c-0.05203,-0.14763 -0.10406,-0.29527 -0.15609,-0.4429c0,0 -0.16275,-0.46773 0.16274,-0.70158c0.32549,-0.23386 0.48823,0.23386 0.48823,0.23386c0.0344,0.09993 0.0688,0.19985 0.1032,0.29978c0.26849,0.03585 0.30721,0.45313 0.30721,0.45313c0.04381,0.47757 0.07084,0.95977 0.07141,1.44148v0.14704c0,0 0,0.52293 -0.3639,0.52293z" fill="#34a37b"/><path d="M182.90723,321.83734c-0.33254,-0.21238 -0.18474,-0.69024 -0.18474,-0.69024l0.10507,-0.22873c0,-0.22873 0,-0.45746 0,-0.68618c0,0 0,-0.52293 0.3639,-0.52293c0.3639,0 0.3639,0.52293 0.3639,0.52293c0,0.22873 0,0.45746 0,0.68618l-0.1678,0.6535c0,0 -0.1478,0.47787 -0.48034,0.26548z" fill="#34a37b"/><path d="M186.47274,323.89868c-0.33448,0.20599 -0.47783,-0.27466 -0.47783,-0.27466l-0.10232,-0.34309c-0.12515,-0.42148 -0.23902,-0.85188 -0.32357,-1.29373c0,0 -0.09575,-0.50451 0.25533,-0.64209c0.35108,-0.1376 0.44683,0.36691 0.44683,0.36691c0.0744,0.39577 0.17753,0.7804 0.29037,1.15693l0.10232,0.34309c0,0 0.14335,0.48065 -0.19113,0.68664z" fill="#34a37b"/><path d="M187.55952,322.64456c-0.34856,0.15027 -0.45312,-0.35062 -0.45312,-0.35062l-0.10959,-0.53082c-0.06416,-0.43851 -0.10887,-0.88681 -0.1104,-1.3349c0,0 0,-0.52293 0.3639,-0.52293c0.3639,0 0.3639,0.52293 0.3639,0.52293c-0.00157,0.37464 0.03847,0.74978 0.09425,1.11576l0.09505,0.44943c0,0 0.10457,0.50087 -0.24399,0.65114z" fill="#5ef1bb"/><path d="M182.1795,325.67262c0,-0.2888 0.16293,-0.52293 0.3639,-0.52293c0.20098,0 0.3639,0.23412 0.3639,0.52293c0,0.2888 -0.16293,0.52293 -0.3639,0.52293c-0.20098,0 -0.3639,-0.23412 -0.3639,-0.52293z" fill="#5ef1bb"/><path d="M186.56814,325.65641c-0.3639,0 -0.3639,-0.52293 -0.3639,-0.52293l0.01867,-0.17773c-0.04548,-0.19605 -0.09095,-0.39211 -0.13643,-0.58816c0,0 -0.11508,-0.49609 0.23015,-0.66146c0.34523,-0.16536 0.46031,0.33073 0.46031,0.33073c0.04548,0.19605 0.09095,0.39211 0.13643,0.58816l0.01867,0.50845c0,0 0,0.52293 -0.3639,0.52293z" fill="#5ef1bb"/><path d="M180.76287,320.41875c-0.33448,-0.20599 -0.19113,-0.68664 -0.19113,-0.68664l0.07439,-0.18444c0.02487,-0.3903 0.0611,-0.77929 0.10578,-1.16592c0,0 0.05983,-0.51581 0.41878,-0.42985c0.35895,0.08597 0.29913,0.60179 0.29913,0.60179c-0.04203,0.36095 -0.07599,0.72419 -0.09887,1.08868l-0.13025,0.50174c0,0 -0.14335,0.48065 -0.47783,0.27466z" fill="#5ef1bb"/></g><g data-paper-data="{&quot;index&quot;:null}" stroke-width="0.5"><path d="M186.09626,328.28316c0.05662,-3.50585 0.06548,-7.03077 0.14746,-10.51311c0.01279,-0.00521 0.02557,-0.01044 0.03834,-0.0157c0.09098,0.76547 0.18725,1.51979 0.29618,2.28096c-0.01287,-0.35554 -0.03557,-0.71122 -0.07479,-1.06903l-0.04438,-0.34068c0,0 -0.06512,-0.50237 0.23329,-0.65685c-0.02572,-0.11879 -0.05234,-0.23801 -0.07984,-0.35784c0.38899,-0.17753 0.76606,-0.38068 1.1295,-0.60756c0.11273,0.17169 0.11273,0.43143 0.11273,0.43143v0.09612c0.13902,0.08902 0.19994,0.3115 0.21143,0.35825c0.00233,0.00144 0.00466,0.0029 0.00694,0.00438c-0.05013,-0.29405 -0.09863,-0.58864 -0.14386,-0.8843c0.45742,0.12295 0.92673,0.21207 1.40567,0.26484c0.01691,0.17606 0.03664,0.35464 0.05911,0.5347c0.02139,-0.1733 0.09308,-0.40262 0.31949,-0.44628c0.12102,-0.02334 0.20766,0.02151 0.26948,0.09274c0.01287,-0.04414 0.02989,-0.08899 0.05241,-0.13043c0.10991,0.00384 0.22026,0.00578 0.33101,0.00578c0.07926,0 0.15831,-0.00099 0.23714,-0.00297c0.0908,0.16957 0.0908,0.39443 0.0908,0.39443l-0.01928,0.17581c0.05294,0.24497 0.10588,0.48996 0.15881,0.73493c0.01816,-0.16265 0.08852,-0.47859 0.36117,-0.48476l0.00621,-0.11506c0,0 0.03119,-0.57746 0.40553,-0.52934c0.37434,0.04813 0.34314,0.62559 0.34314,0.62559l-0.01165,0.21581c0.04211,0.03546 0.07567,0.08313 0.10201,0.13251c-0.00145,-0.13199 -0.00231,-0.26412 -0.00241,-0.39644v-0.14362c0,0 0,-0.57947 0.37564,-0.57947c0.37564,0 0.37564,0.57947 0.37564,0.57947v0.14362c-0.00029,0.38291 0.00637,0.76458 0.01473,1.1461c0.05564,-0.08357 0.13835,-0.1457 0.26135,-0.1457c0.03404,0 0.06499,0.00476 0.09314,0.01341c0.0126,-0.15034 0.07395,-0.51609 0.37237,-0.51609c0.37564,0 0.37563,0.57947 0.37563,0.57947l-0.00132,0.16677c0.03714,0.68452 0.04768,1.37251 0.04787,2.05942c0,0 0,0.57947 -0.37564,0.57947c-0.23669,0 -0.32424,-0.23008 -0.35662,-0.40028c-0.00925,0.00556 -0.01888,0.01063 -0.02892,0.01518c0.01635,0.09298 0.01635,0.16469 0.01635,0.16469c0,1.7537 0.12344,3.59895 -0.15087,5.31102l-0.10875,0.43372c0,0 -0.1395,0.53802 -0.48827,0.32281c-0.34876,-0.21521 -0.20925,-0.75323 -0.20925,-0.75323l0.07745,-0.28439c0.0134,-0.08158 0.02576,-0.16359 0.03717,-0.24599c-0.00184,-0.02768 -0.00183,-0.04434 -0.00183,-0.04434v-0.07182c0,-0.766 0,-1.53199 0,-2.29799c0,0 0,-0.27457 0.12251,-0.4457c-0.00306,-0.20382 -0.00709,-0.40745 -0.0112,-0.61036c-0.04482,0.05529 -0.10511,0.09879 -0.186,0.11959c-0.039,0.01003 -0.07458,0.01267 -0.10703,0.00936c0.04232,0.69093 0.09341,1.38203 0.13974,2.09027l0.00187,0.3449c0,0 0.00001,0.57947 -0.37563,0.57947c-0.05164,0 -0.09618,-0.01096 -0.1346,-0.02985c-0.00334,0.02477 -0.00674,0.0496 -0.01018,0.07448l-0.05748,0.27726c0,0 -0.11879,0.54972 -0.47514,0.36649c-0.11737,-0.06036 -0.1832,-0.16047 -0.21871,-0.26761c-0.02498,0.00655 -0.05208,0.0101 -0.08147,0.0101c-0.37564,0 -0.37563,-0.57947 -0.37563,-0.57947v-0.21544c0.00024,-0.72242 -0.04227,-1.42746 -0.10048,-2.12764c-0.11735,-0.15716 -0.13098,-0.40947 -0.13098,-0.40947c-0.01101,-0.20676 -0.02489,-0.41249 -0.04062,-0.61755c-0.03284,0.02573 -0.07137,0.04651 -0.11655,0.06045c-0.08895,0.02744 -0.16071,0.01512 -0.2184,-0.01936c0.06907,0.45159 0.12724,0.90485 0.17279,1.36107c0.16656,1.02806 0.36042,2.04997 0.52256,3.0482l0.01122,0.57141c0,0 0,0.57947 -0.37564,0.57947c-0.1918,0 -0.28567,-0.15107 -0.3316,-0.29895c-0.02659,0.00757 -0.05564,0.0117 -0.08736,0.0117c-0.37564,0 -0.37564,-0.57947 -0.37564,-0.57947v-1.07719c0,-0.70379 -0.0373,-1.3954 -0.10536,-2.07986c-0.08923,-0.55753 -0.17072,-1.1168 -0.23601,-1.6757c-0.0289,0.14056 -0.09582,0.31495 -0.25083,0.36877c0.11719,0.81815 0.2226,1.64128 0.35468,2.45632l0.05265,0.47615c0,0 0.06175,0.57158 -0.30877,0.66685c-0.37052,0.09526 -0.43227,-0.47632 -0.43227,-0.47632l-0.04045,-0.38559c-0.01006,-0.06209 -0.01995,-0.12424 -0.02972,-0.18644c-0.03369,0.02157 -0.07271,0.03768 -0.11789,0.04639c-0.37273,0.07188 -0.41932,-0.50312 -0.41932,-0.50312l-0.00523,-0.06932c-0.01314,0.00159 -0.0268,0.00242 -0.04099,0.00242c-0.05288,0 -0.09833,-0.01149 -0.13737,-0.03122l0.00094,0.2417c0,0 0,0.57947 -0.37564,0.57947c-0.14158,0 -0.2298,-0.08232 -0.28477,-0.18492c0.0397,0.63789 0.0706,1.28128 0.10083,1.93397l0.00096,0.40035c0,0 0,0.57947 -0.37564,0.57947c-0.37564,0 -0.37563,-0.57947 -0.37563,-0.57947l0.00095,-0.31777c-0.0134,-0.28938 -0.02682,-0.57683 -0.04106,-0.86275c0,0.32903 0,0.65145 0,0.96509c0,0 0,0.56533 -0.36197,0.57921zM186.45823,320.69974c0,0.11587 0,0.23248 0,0.34975c0.0584,0.03626 0.10282,0.09593 0.13584,0.15788c0.00043,-0.27651 -0.00058,-0.55179 -0.00617,-0.82677c-0.01436,0.10965 -0.04974,0.23092 -0.12967,0.31914z" fill="#45d9a3"/><path d="M193.61937,320.62857c0.02202,-0.00235 0.0455,-0.00214 0.07051,0.00099c0.37452,0.04693 0.34571,0.65691 0.34571,0.65691c-0.05515,1.15838 -0.06998,2.34649 -0.0693,3.50823v0.80278c0,0 0,0.61178 -0.37564,0.61178c-0.37564,0 -0.37563,-0.61178 -0.37563,-0.61178v-0.80278c0.00012,-0.24625 0.00088,-0.49355 0.00247,-0.74143c-0.03547,0.91187 -0.02576,1.83168 -0.02576,2.74838l-0.03707,0.63429c0,0 -0.03738,0.60874 -0.41114,0.54787c-0.37377,-0.06087 -0.33639,-0.66962 -0.33639,-0.66962l0.03334,-0.51254c0,-0.40492 -0.00104,-0.80934 0.00064,-1.21298c-0.06521,0.08175 -0.15794,0.13284 -0.28881,0.09523c-0.03172,-0.00912 -0.06025,-0.02188 -0.08589,-0.03761c-0.00116,0.06781 -0.00171,0.13641 -0.00163,0.20599l-0.03618,0.71348c0,0 -0.03119,0.60968 -0.40553,0.55887c-0.37434,-0.0508 -0.34314,-0.66047 -0.34314,-0.66047l0.03423,-0.66272c0.00098,-0.90384 0.09931,-1.68812 0.21986,-2.57296c0,0 0.08148,-0.59721 0.44817,-0.4645c0.05913,0.0214 0.10661,0.05488 0.14465,0.09599c0.06339,-0.11201 0.16342,-0.19815 0.31989,-0.16175c0.03813,0.00887 0.07178,0.0232 0.10149,0.04177c0.0211,-0.23684 0.04627,-0.47319 0.07633,-0.70899c0,0 0.07739,-0.59866 0.44496,-0.47263c0.0127,0.00434 0.02485,0.00926 0.0365,0.01469c-0.17393,-0.13253 -0.20408,-0.47634 -0.20408,-0.47634l-0.03744,-0.43252c-0.01174,-0.21025 -0.02347,-0.4205 -0.03521,-0.63075c0,0 -0.03401,-0.60927 0.34008,-0.66466c0.37409,-0.05539 0.4081,0.55389 0.4081,0.55389c0.01174,0.21025 0.02347,0.42051 0.03521,0.63076zM193.2646,321.71613c0.00114,-0.03071 0.0023,-0.06139 0.0035,-0.09208c-0.03938,0.00163 -0.07462,-0.00519 -0.10614,-0.01841c0.04211,0.03001 0.0758,0.06795 0.10265,0.11049z" fill="#34a37b"/><path d="M189.15457,325.92258c-0.37564,0 -0.37563,-0.61178 -0.37563,-0.61178v-0.51607c0,-0.66898 0,-1.33797 0,-2.00695c0,0 -0.00001,-0.61178 0.37563,-0.61178c0.15084,0 0.24111,0.09866 0.29512,0.21673c0.05915,-0.04394 0.13439,-0.06308 0.22976,-0.03483c0.04394,0.01301 0.08172,0.033 0.11416,0.0581c0.05937,-0.0819 0.14488,-0.13805 0.26789,-0.12375c0.37468,0.04359 0.34791,0.65381 0.34791,0.65381c-0.03577,0.80979 -0.03426,1.61056 -0.03426,2.42209v0.22936c0,0 0,0.61178 -0.37564,0.61178c-0.21884,0 -0.31018,-0.20766 -0.34831,-0.38101c-0.04064,0.02327 -0.08841,0.03695 -0.14458,0.03695c-0.05364,0 -0.09962,-0.01248 -0.13903,-0.03386c-0.05234,0.0549 -0.12155,0.09119 -0.21304,0.09119z" fill="#34a37b"/><path d="M188.672,322.34839c0.07211,0.20954 0.04009,0.4529 0.04009,0.4529c-0.11539,0.87325 -0.1688,1.74979 -0.24041,2.6345l-0.03445,0.6185c0,0 -0.034,0.60927 -0.40809,0.55389c-0.37409,-0.05539 -0.34009,-0.66466 -0.34009,-0.66466l0.03596,-0.64302c0.05493,-0.68032 0.10083,-1.35554 0.16884,-2.02851c-0.09917,-0.22563 -0.05431,-0.5179 -0.05431,-0.5179l0.0959,-0.59422c-0.02024,-0.47775 -0.08987,-0.95289 -0.19086,-1.40264c0,0 -0.12633,-0.57613 0.22741,-0.78191c0.35375,-0.20577 0.48009,0.37037 0.48009,0.37037c0.13255,0.61657 0.20556,1.27128 0.23163,1.92317z" fill="#34a37b"/><path d="" fill="#34a37b"/><path d="" fill="#34a37b"/><path d="M186.58444,327.29879c-0.37564,0 -0.37564,-0.61178 -0.37564,-0.61178l0.0013,-0.28017c0.01174,-0.22937 0.02347,-0.45874 0.03521,-0.6881c0,0 0.03119,-0.60968 0.40553,-0.55887c0.37434,0.0508 0.34314,0.66047 0.34314,0.66047c-0.01174,0.22937 -0.02347,0.45874 -0.03521,0.6881l0.0013,0.17856c0,0 0,0.61178 -0.37564,0.61178z" fill="#34a37b"/><path d="M190.84451,323.22754c-0.37564,0 -0.37563,-0.61178 -0.37563,-0.61178v-0.17203c0.0006,-0.56356 0.02848,-1.12769 0.07371,-1.68641c0,0 0.03997,-0.48818 0.31711,-0.53012c0.0355,-0.1169 0.07102,-0.23381 0.10653,-0.35071c0,0 0.16799,-0.54719 0.50396,-0.2736c0.33597,0.2736 0.16798,0.8208 0.16798,0.8208c-0.05371,0.17272 -0.10741,0.34544 -0.16112,0.51816l-0.09412,0.57338c0,0 -0.03795,0.22663 -0.15305,0.36073c-0.00654,0.18915 -0.00997,0.37851 -0.00975,0.56778v0.17203c0,0 0,0.61178 -0.37564,0.61178z" fill="#34a37b"/><path d="M189.94085,322.20001c-0.34327,0.24847 -0.49582,-0.3106 -0.49582,-0.3106l-0.17321,-0.76454c0,-0.26759 0,-0.53518 0,-0.80278c0,0 0,-0.61178 0.37564,-0.61178c0.37564,0 0.37563,0.61178 0.37563,0.61178c0,0.26759 0,0.53518 0,0.80278l0.10846,0.2676c0,0 0.15256,0.55905 -0.19069,0.80752z" fill="#34a37b"/><path d="M186.14444,324.49642c0.00374,-0.34661 0.00744,-0.69318 0.01121,-1.03967l0.01312,-0.04985c0.11649,-0.44051 0.22292,-0.89049 0.29973,-1.35351c0,0 0.09884,-0.59023 0.46123,-0.42925c0.36239,0.16097 0.26356,0.7512 0.26356,0.7512c-0.08728,0.51693 -0.20481,1.02046 -0.334,1.51356l-0.10562,0.40139c0,0 -0.14797,0.56232 -0.49323,0.32132c-0.04742,-0.0331 -0.08553,-0.07226 -0.116,-0.11519z" fill="#34a37b"/><path d="" fill="#5ef1bb"/><path d="M190.31638,327.29877c-0.20746,0 -0.37563,-0.2739 -0.37563,-0.61178c0,-0.33788 0.16817,-0.61178 0.37563,-0.61178c0.20746,0 0.37564,0.2739 0.37564,0.61178c0,0.33788 -0.16818,0.61178 -0.37564,0.61178z" fill="#5ef1bb"/><path d="M186.16197,326.66803c-0.01476,0 -0.02893,-0.00094 -0.04255,-0.00276c0.00965,-0.75608 0.01794,-1.5126 0.02609,-2.26895c0.06968,-0.05401 0.16035,-0.07278 0.27606,-0.00996c0.35635,0.19347 0.23757,0.77386 0.23757,0.77386c-0.04695,0.22936 -0.09388,0.45874 -0.14083,0.6881l0.01927,0.20792c0,0 0.00001,0.61178 -0.37563,0.61178z" fill="#5ef1bb"/><path d="M192.15429,320.54038c-0.34526,0.241 -0.49323,-0.32132 -0.49323,-0.32132l-0.13445,-0.587c-0.02362,-0.42641 -0.05867,-0.85137 -0.10206,-1.27365c0,0 -0.06175,-0.60346 0.30877,-0.70404c0.37053,-0.10058 0.43227,0.50289 0.43227,0.50289c0.04612,0.45233 0.08352,0.90742 0.10919,1.36403l0.0768,0.21578c0,0 0.14797,0.56232 -0.19729,0.80332z" fill="#5ef1bb"/></g><path d="M192.81081,318.61877c0.046,-0.26068 0.092,-0.52135 0.138,-0.78203c0,0 0.08689,-0.49239 0.57928,-0.4055c0.49239,0.08689 0.4055,0.57928 0.4055,0.57928c-0.046,0.26068 -0.092,0.52135 -0.138,0.78203l0.00761,0.28112c0,0 0,0.39555 -0.35182,0.48302c0.35182,0.08746 0.35182,0.48302 0.35182,0.48302c0,0.61086 0.00677,1.13376 -0.13889,1.72229c-0.00645,0.09357 -0.05968,0.47977 -0.49911,0.47977c-0.5,0 -0.5,-0.5 -0.5,-0.5l0.01762,-0.17756c0.05097,-0.18002 0.08111,-0.35251 0.09873,-0.52345c-0.06863,0.01428 -0.14924,0.01364 -0.24363,-0.00996c-0.48507,-0.12127 -0.3638,-0.60634 -0.3638,-0.60634l0.09469,-0.3783c0.08753,-0.31979 0.16145,-0.64366 0.22045,-0.96992c0,0 0.05563,-0.30597 0.32045,-0.39143z" fill="#45d9a3" stroke-width="0.5"/></g></g></svg>