<svg version="1.1" xmlns="http://www.w3.org/2000/svg" xmlns:xlink="http://www.w3.org/1999/xlink" width="15.15799" height="334.2311" viewBox="0,0,15.15799,334.2311"><defs><radialGradient cx="186.71882" cy="485.59614" r="159.32398" gradientUnits="userSpaceOnUse" id="color-1"><stop offset="0" stop-color="#122740"/><stop offset="1" stop-color="#1a1a1a"/></radialGradient></defs><g transform="translate(-179.46565,-316.7426)"><g data-paper-data="{&quot;isPaintingLayer&quot;:true}" fill-rule="nonzero" stroke="none" stroke-linecap="butt" stroke-linejoin="miter" stroke-miterlimit="10" stroke-dasharray="" stroke-dashoffset="0" style="mix-blend-mode: normal"><path d="M180.17766,650.9737v-330.75512h13.08232v330.75512z" fill="url(#color-1)" stroke-width="0"/><g stroke-width="0.5"><path d="M191.65637,317.43628c1.96625,0 1.96625,1.35885 1.96625,1.35885c0,2.60914 0.28044,4.9993 -0.88741,7.49572l-2.55901,1.32923c0,0 -0.00673,0.00233 -0.01955,0.0064l-0.25593,0.2826c0,0 -1.39034,0.96085 -2.7807,0c-1.39034,-0.96085 0,-1.9217 0,-1.9217l0.17242,0.34167c0.00313,-0.09286 0.02231,-0.18005 0.05355,-0.26157c0.02198,-0.34362 0.06454,-0.68971 0.13852,-1.0316c-0.15963,-0.01338 -0.31335,-0.04 -0.4588,-0.07819c-0.3487,0.3797 -0.96242,0.63169 -1.66133,0.63169c-0.24588,0 -0.48121,-0.03119 -0.69817,-0.08816c-0.3487,0.3797 -0.96242,0.63169 -1.66133,0.63169c-0.64328,0 -1.21442,-0.21349 -1.57314,-0.54354c-1.08586,-0.00005 -1.96609,-0.60841 -1.96609,-1.35885c0,-0.18118 0,-1.99298 0,-2.17416c0,-0.36236 0,-2.35534 0,-2.7177c0,0 0,-1.35878 1.96609,-1.35885c0.35872,-0.33005 0.92986,-0.54354 1.57314,-0.54354c0.24588,0 0.48121,0.03119 0.69817,0.08816c0.17323,-0.18863 0.41188,-0.34575 0.69388,-0.45611c0.12103,0.00413 0.24271,0.00622 0.36498,0.00622c0.91244,0 1.79217,-0.11627 2.61892,-0.33194c0.78337,0.20436 1.61432,0.31947 2.47559,0.33099l0.41261,0.5703l-0.07154,0.02472c0.03179,0.03554 0.06302,0.07134 0.09365,0.10743c0.2912,-0.19501 0.72349,-0.33976 1.36523,-0.33976z" fill="#319872"/><path d="M181.05307,323.76589c-1.75866,-0.6077 -0.87934,-1.82309 -0.87934,-1.82309l0.67982,-0.90909c0.26216,-0.54354 0.52433,-1.08708 0.7865,-1.63062c0,0 0.62178,-1.28911 2.48712,-0.85941c1.86534,0.4297 1.24357,1.71883 1.24357,1.71883c-0.26216,0.54354 -0.52433,1.08708 -0.7865,1.63062l-0.89318,1.26507c0,0 -0.87934,1.21539 -2.638,0.6077z" fill="#3fc493"/><path d="M186.75864,322.30343c0,-0.72472 0,-2.53652 0,-3.26124c0,0 0,-1.35885 1.96625,-1.35885c1.96625,0 1.96625,1.35885 1.96625,1.35885c0,0.29389 0,0.58778 0,0.88167c0.00632,-0.11029 0.00649,-0.22292 0,-0.33813c0,0 0,-1.35885 1.96625,-1.35885c1.96625,0 1.96625,1.35885 1.96625,1.35885c-0.08925,2.49377 -1.73037,3.91044 -3.37224,6.06823l-1.13615,0.87155c0,0 -1.39034,0.96085 -2.7807,0c-1.39034,-0.96085 0,-1.9217 0,-1.9217l0.43684,-0.21552c0.19544,-0.25645 0.40237,-0.50195 0.61226,-0.74083c-1.625,-0.14734 -1.625,-1.34403 -1.625,-1.34403z" fill="#3fc493"/></g></g></g></svg>