<svg version="1.1" xmlns="http://www.w3.org/2000/svg" xmlns:xlink="http://www.w3.org/1999/xlink" width="50.59082" height="12.32044" viewBox="0,0,50.59082,12.32044"><defs><linearGradient x1="179.90203" y1="324.69801" x2="179.90203" y2="313.83978" gradientUnits="userSpaceOnUse" id="color-1"><stop offset="0" stop-color="#347ef7"/><stop offset="1" stop-color="#4d5aff"/></linearGradient></defs><g transform="translate(-154.70459,-313.83978)"><g data-paper-data="{&quot;isPaintingLayer&quot;:true}" fill-rule="nonzero" stroke-linecap="butt" stroke-linejoin="miter" stroke-miterlimit="10" stroke-dasharray="" stroke-dashoffset="0" style="mix-blend-mode: normal"><path d="M204.11984,318.58143c0,1.93688 1.17557,3.82542 1.17557,4.93716c0,1.12385 -0.8375,2.64163 -2.2923,2.64163c-8.81878,0 -40.32079,0 -45.45552,0c-1.38071,0 -2.64707,-1.2363 -2.64707,-2.75384c0,-1.70471 1.17557,-3.42768 1.17557,-4.48832c0,-1.31879 0.14448,-3.61608 1.66743,-3.61608c5.38232,0 36.28609,0 44.76977,0c1.33372,0 1.60655,1.76313 1.60655,3.27945z" data-paper-data="{&quot;index&quot;:null}" fill="#3649c7" stroke="none" stroke-width="0"/><path d="M205.09948,316.89482c0,1.93688 0,4.04983 0,5.16156c0,1.12385 -0.8375,2.64163 -2.2923,2.64163c-8.81878,0 -40.32079,0 -45.45552,0c-1.38071,0 -2.64707,-1.2363 -2.64707,-2.75384c0,-1.70471 0,-3.76431 0,-4.82494c0,-1.31879 1.32005,-3.27945 2.843,-3.27945c5.38232,0 36.28609,0 44.76977,0c1.33372,0 2.78213,1.53873 2.78213,3.05504z" data-paper-data="{&quot;index&quot;:null}" fill="url(#color-1)" stroke="none" stroke-width="0"/><text transform="translate(171.34355,321.33836) scale(0.16567,0.122)" font-size="40" xml:space="preserve" fill="#ffffff" fill-rule="nonzero" stroke="#4e4e4e" stroke-width="2.5" stroke-linecap="butt" stroke-linejoin="miter" stroke-miterlimit="10" stroke-dasharray="" stroke-dashoffset="0" font-family="Marker" font-weight="normal" text-anchor="start" style="mix-blend-mode: normal"><tspan x="0" dy="0">MENU</tspan></text></g></g></svg>