<svg version="1.1" xmlns="http://www.w3.org/2000/svg" xmlns:xlink="http://www.w3.org/1999/xlink" width="100.60926" height="102.24005" viewBox="0,0,100.60926,102.24005"><g transform="translate(-129.69537,-127.03505)"><g data-paper-data="{&quot;isPaintingLayer&quot;:true}" fill-rule="nonzero" stroke-linejoin="miter" stroke-miterlimit="10" stroke-dasharray="" stroke-dashoffset="0" style="mix-blend-mode: normal"><path d="M129.69537,222.02694c0,-20.67051 0,-79.0825 0,-89.35798c0,-3.02535 2.50339,-5.63391 5.4212,-5.63391c10.31975,0 71.03284,0 89.71811,0c3.45234,0 5.46995,3.69286 5.46995,7.67507c0,11.36733 0,66.78497 0,87.09002c0,4.66359 -3.11411,7.47496 -6.58585,7.47496c-10.64077,0 -65.88631,0 -86.37041,0c-4.76829,0 -7.65299,-2.71749 -7.65299,-7.24816z" fill="#ffffff" stroke="none" stroke-width="0" stroke-linecap="butt"/><path d="M131.0685,220.04443c0,-19.81327 0,-75.80283 0,-85.65217c0,-2.89988 2.43846,-5.40026 5.2806,-5.40026c10.05211,0 69.19063,0 87.39131,0c3.3628,0 5.32809,3.53971 5.32809,7.35678c0,10.89591 0,64.01529 0,83.47826c0,4.47019 -3.03335,7.16496 -6.41505,7.16496c-10.36481,0 -64.17757,0 -84.13043,0c-4.64463,0 -7.45451,-2.60479 -7.45451,-6.94757z" fill="#ffffff" stroke="#c1c1c1" stroke-width="0.5" stroke-linecap="butt"/><text transform="translate(151.11749,142.80269) scale(0.18103,0.18103)" font-size="40" xml:space="preserve" fill="#ffef3c" fill-rule="nonzero" stroke="#5f5f5f" stroke-width="3" stroke-linecap="butt" stroke-linejoin="miter" stroke-miterlimit="10" stroke-dasharray="" stroke-dashoffset="0" font-family="Marker" font-weight="normal" text-anchor="start" style="mix-blend-mode: normal"><tspan x="0" dy="0">SCORE</tspan></text><text transform="translate(195.72557,142.79857) scale(0.12884,0.12884)" font-size="40" xml:space="preserve" fill="#ffffff" fill-rule="nonzero" stroke="#5f5f5f" stroke-width="3" stroke-linecap="butt" stroke-linejoin="miter" stroke-miterlimit="10" stroke-dasharray="" stroke-dashoffset="0" font-family="Marker" font-weight="normal" text-anchor="start" style="mix-blend-mode: normal"><tspan x="0" dy="0">RECORD</tspan></text><path d="M144.19636,152.38645h34.09123" fill="none" stroke="#ececec" stroke-width="12.5" stroke-linecap="round"/><path d="M216.6815,150.98754h-25.22889" fill="none" stroke="#ececec" stroke-width="9.5" stroke-linecap="round"/><path d="M143.694,178.39119h31.30633" fill="none" stroke="#ececec" stroke-width="9.5" stroke-linecap="round"/><text transform="translate(144.79147,169.71393) scale(0.12009,0.12009)" font-size="40" xml:space="preserve" fill="#ffffff" fill-rule="nonzero" stroke="#5f5f5f" stroke-width="3" stroke-linecap="butt" stroke-linejoin="miter" stroke-miterlimit="10" stroke-dasharray="" stroke-dashoffset="0" font-family="Marker" font-weight="normal" text-anchor="start" style="mix-blend-mode: normal"><tspan x="0" dy="0">TOTAL COINS</tspan></text><text transform="translate(186.12961,169.98712) scale(0.11621,0.11621)" font-size="40" xml:space="preserve" fill="#ffffff" fill-rule="nonzero" stroke="#5f5f5f" stroke-width="3" stroke-linecap="butt" stroke-linejoin="miter" stroke-miterlimit="10" stroke-dasharray="" stroke-dashoffset="0" font-family="Marker" font-weight="normal" text-anchor="start" style="mix-blend-mode: normal"><tspan x="0" dy="0">WORLD RECORD</tspan></text><path d="M187.70073,178.43327h28.9326" fill="none" stroke="#ececec" stroke-width="9.5" stroke-linecap="round"/></g></g></svg>