<svg version="1.1" xmlns="http://www.w3.org/2000/svg" xmlns:xlink="http://www.w3.org/1999/xlink" width="100.60926" height="102.24005" viewBox="0,0,100.60926,102.24005"><g transform="translate(-129.69537,-127.03505)"><g data-paper-data="{&quot;isPaintingLayer&quot;:true}" fill-rule="nonzero" stroke-linejoin="miter" stroke-miterlimit="10" stroke-dasharray="" stroke-dashoffset="0" style="mix-blend-mode: normal"><path d="M129.69537,222.02694c0,-20.67051 0,-79.0825 0,-89.35798c0,-3.02535 2.50339,-5.63391 5.4212,-5.63391c10.31975,0 71.03284,0 89.71811,0c3.45234,0 5.46995,3.69286 5.46995,7.67507c0,11.36733 0,66.78497 0,87.09002c0,4.66359 -3.11411,7.47496 -6.58585,7.47496c-10.64077,0 -65.88631,0 -86.37041,0c-4.76829,0 -7.65299,-2.71749 -7.65299,-7.24816z" fill="#ffffff" stroke="none" stroke-width="0" stroke-linecap="butt"/><path d="M131,220.04443c0,-19.81327 0,-75.80283 0,-85.65217c0,-2.89988 2.43846,-5.40026 5.2806,-5.40026c10.05211,0 69.19063,0 87.39131,0c3.3628,0 5.32809,3.53971 5.32809,7.35678c0,10.89591 0,64.01529 0,83.47826c0,4.47019 -3.03335,7.16496 -6.41505,7.16496c-10.36481,0 -64.17757,0 -84.13043,0c-4.64463,0 -7.45451,-2.60479 -7.45451,-6.94757z" fill="#ffffff" stroke="#c1c1c1" stroke-width="0.5" stroke-linecap="butt"/><text transform="translate(175.37675,137.89532) scale(0.15465,0.13544)" font-size="40" xml:space="preserve" fill="#ffef3c" fill-rule="nonzero" stroke="#5f5f5f" stroke-width="3" stroke-linecap="butt" stroke-linejoin="miter" stroke-miterlimit="10" stroke-dasharray="" stroke-dashoffset="0" font-family="Marker" font-weight="normal" text-anchor="start" style="mix-blend-mode: normal"><tspan x="0" dy="0">NEW</tspan></text><text transform="translate(143.35183,175.34162) scale(0.11621,0.11621)" font-size="40" xml:space="preserve" fill="#ffffff" fill-rule="nonzero" stroke="#5f5f5f" stroke-width="3" stroke-linecap="butt" stroke-linejoin="miter" stroke-miterlimit="10" stroke-dasharray="" stroke-dashoffset="0" font-family="Marker" font-weight="normal" text-anchor="start" style="mix-blend-mode: normal"><tspan x="0" dy="0">WORLD RECORD</tspan></text><path d="M151.51959,160.35784h55.60638" fill="none" stroke="#ececec" stroke-width="12.5" stroke-linecap="round"/><path d="M190.45158,183.16392h23.37704" fill="none" stroke="#ececec" stroke-width="9.5" stroke-linecap="round"/><text transform="translate(187.98365,175.75305) scale(0.12009,0.12009)" font-size="40" xml:space="preserve" fill="#ffffff" fill-rule="nonzero" stroke="#5f5f5f" stroke-width="3" stroke-linecap="butt" stroke-linejoin="miter" stroke-miterlimit="10" stroke-dasharray="" stroke-dashoffset="0" font-family="Marker" font-weight="normal" text-anchor="start" style="mix-blend-mode: normal"><tspan x="0" dy="0">TOTAL COINS</tspan></text><text transform="translate(156.8919,148.13518) scale(0.28653,0.24732)" font-size="40" xml:space="preserve" fill="#ffef3c" fill-rule="nonzero" stroke="#5f5f5f" stroke-width="3" stroke-linecap="butt" stroke-linejoin="miter" stroke-miterlimit="10" stroke-dasharray="" stroke-dashoffset="0" font-family="Marker" font-weight="normal" text-anchor="start" style="mix-blend-mode: normal"><tspan x="0" dy="0">RECORD!</tspan></text><path d="M147.33036,183.04703h23.37704" fill="none" stroke="#ececec" stroke-width="9.5" stroke-linecap="round"/></g></g></svg>