<svg version="1.1" xmlns="http://www.w3.org/2000/svg" xmlns:xlink="http://www.w3.org/1999/xlink" width="37.83824" height="36.78946" viewBox="0,0,37.83824,36.78946"><g transform="translate(-124.77696,-303.08541)"><g data-paper-data="{&quot;isPaintingLayer&quot;:true}" fill-rule="nonzero" stroke-linecap="butt" stroke-linejoin="miter" stroke-miterlimit="10" stroke-dasharray="" stroke-dashoffset="0" style="mix-blend-mode: normal"><path d="M127.6731,338.36197v-32.29075h31.46332v32.29075z" fill-opacity="0.00784" fill="#000000" stroke="none" stroke-width="0"/><path d="M139.13144,334.21621c-1.35603,0 -2.83533,0 -3.61367,0c-0.78682,0 -1.84944,-0.39044 -1.84944,-1.06867c0,-4.11134 0,-18.79766 0,-21.19149c0,-0.64368 0.86554,-1.23407 1.928,-1.23407c1.19349,0 2.63543,0 3.37799,0c0.9233,0 2.29598,0.61541 2.29598,1.32541c0,2.50925 0,16.91667 0,20.87179c0,0.62178 -1.07728,1.29703 -2.13886,1.29703z" data-paper-data="{&quot;index&quot;:null}" fill-opacity="0.25882" fill="#363636" stroke-opacity="0.63529" stroke="#ffffff" stroke-width="1"/><path d="M151.29155,334.21621c-1.35603,0 -2.83534,0 -3.61367,0c-0.78682,0 -1.84943,-0.39045 -1.84943,-1.06868c0,-4.11134 0,-18.79766 0,-21.19148c0,-0.64368 0.86553,-1.23407 1.92799,-1.23407c1.19348,0 2.63543,0 3.37799,0c0.9233,0 2.29598,0.61541 2.29598,1.32541c0,2.50925 0,16.91667 0,20.87179c0,0.62178 -1.07728,1.29703 -2.13886,1.29703z" data-paper-data="{&quot;index&quot;:null}" fill-opacity="0.25882" fill="#363636" stroke-opacity="0.63529" stroke="#ffffff" stroke-width="1"/><path d="M124.77696,339.87487v-36.78946h37.83824v36.78946z" fill="none" stroke="none" stroke-width="0"/></g></g></svg>