<svg version="1.1" xmlns="http://www.w3.org/2000/svg" xmlns:xlink="http://www.w3.org/1999/xlink" width="22.78171" height="48.77446" viewBox="0,0,22.78171,48.77446"><g transform="translate(-166.93604,-270.41667)"><g data-paper-data="{&quot;isPaintingLayer&quot;:true}" fill-rule="nonzero" stroke="none" stroke-linecap="butt" stroke-linejoin="miter" stroke-miterlimit="10" stroke-dasharray="" stroke-dashoffset="0" style="mix-blend-mode: normal"><path d="M168.68269,298.51146c-0.71157,-1.68566 0.77875,-2.49885 0.77875,-2.49885l1.5509,-0.8254c1.57037,-0.56351 3.16672,-1.03373 4.76975,-1.46107c0,0 0.02336,-0.00622 0.0651,-0.01397c0.01909,-1.09747 0.03863,-2.19495 0.05735,-3.29239c1.27234,-0.23865 2.1696,-1.00371 3.32806,-1.49216c-0.01875,1.06826 -0.0752,2.17444 -0.1407,3.29829c2.34095,0.03758 4.68191,0.07517 7.02285,0.11275l1.98145,0.03181c0,0 1.65121,0.02651 1.62116,1.89788c-0.03004,1.87137 -1.68125,1.84486 -1.68125,1.84486c-2.39146,-0.0384 -6.71509,-0.10781 -9.15492,-0.14698c-0.09289,2.07864 -0.11111,4.14191 0.11973,6.06638c0.11463,0.95555 0.79818,1.85964 0.62234,2.80451c-0.09722,0.52238 -0.29911,1.02634 -0.56487,1.50913c0.64298,0.93266 1.35855,1.82086 1.74507,2.91062c0.29082,0.81991 -0.05189,1.77514 0.03411,2.65425c0.11528,1.17848 0.37843,2.33165 0.56764,3.49746l0.01401,1.92017c0,0 -0.01476,1.87153 -1.66617,1.86235c-1.65142,-0.00918 -1.63666,-1.88072 -1.63666,-1.88072l0.03876,-1.2198c-0.20327,-1.28782 -0.4948,-2.56131 -0.60983,-3.86345c-0.05391,-0.6102 0.314,-1.27148 0.10621,-1.83703c-0.17571,-0.47823 -0.45353,-0.889 -0.75785,-1.28224c-0.15875,0.17117 -0.31288,0.33689 -0.4587,0.49689c-1.9302,2.11803 -4.09528,3.75844 -6.0405,5.89294l-1.83686,0.51876c0,0 -1.65121,-0.02651 -1.62116,-1.89788c0.02869,-1.78682 1.53535,-1.84338 1.67144,-1.84485c1.80916,-1.87955 3.77907,-3.42684 5.5344,-5.353c0.10564,-0.11592 2.17351,-2.27684 2.21575,-2.63299c0.07261,-0.61226 -0.5396,-1.09885 -0.62652,-1.70799c-0.11946,-0.83718 0.0097,-1.69719 0.01955,-2.54574c0.00952,-0.82126 0.02066,-1.64252 0.03288,-2.46379c-1.27179,0.35039 -2.53708,0.73503 -3.78429,1.18439l-1.11507,0.62928c0,0 -1.49033,0.81319 -2.20189,-0.87247z" fill="#000000" stroke-width="0.5"/><g><path d="M175.9986,290.24877c-0.78449,-0.00095 -1.55446,-0.1879 -2.19463,-0.62789c-0.91365,-0.62797 -0.50908,-2.3473 -0.67128,-3.53888c-0.1174,-0.86256 -0.2118,-5.67199 -0.18133,-5.89092c0.22453,-1.61343 0.75657,-3.39334 1.27782,-5.13606c-0.31428,-0.11837 -0.63166,-0.37993 -0.88986,-0.89045c-0.8258,-1.63274 0.60507,-2.54649 0.60507,-2.54649l2.0069,-1.05355c0.0913,-0.00482 0.20009,-0.01098 0.3233,-0.01802c0.14875,-0.03731 0.31486,-0.04989 0.50005,-0.02845c1.58625,-0.08857 4.31849,-0.21629 4.7771,0.10447c0.96054,0.67182 1.2211,2.19727 1.51327,3.42881c0.63603,2.68091 -0.36975,4.46927 -1.04031,6.95786c-0.72151,2.67776 -0.45112,2.82231 -1.8091,5.63944c-0.35514,0.73674 -0.60205,1.67714 -1.04361,2.34712c0.00708,0.02448 0.01363,0.04849 0.01971,0.07193c-1.11656,0.56331 -1.94246,1.42132 -3.16413,1.73578c-0.00963,-0.18491 -0.01928,-0.3698 -0.02897,-0.5547zM178.07509,273.83636c-0.84458,3.28941 -1.90471,6.37726 -1.76122,9.85932c0.03041,0.73778 0.19061,1.47983 0.11706,2.21214c-0.03563,0.35473 -0.56955,0.62159 -0.43436,0.94673c0.10747,0.25847 0.52835,-0.13622 0.67711,-0.36294c0.29884,-0.45547 0.39239,-1.04618 0.59014,-1.5685c0.35759,-0.94455 0.76915,-1.86425 1.07587,-2.83209c0.57108,-1.80203 1.15866,-3.61005 1.51109,-5.48551c0.11375,-0.60525 -0.00979,-1.24111 -0.02448,-1.86158c-0.0078,-0.32921 0.23769,-0.89693 -0.04293,-0.98712c-0.5605,-0.18013 -1.13196,-0.08118 -1.70828,0.07954z" fill="#000000" stroke-width="0.5"/><path d="M179.79697,273.7087c0.28063,0.0902 0.03767,0.65869 0.04546,0.9879c0.01468,0.62047 0.14516,1.25929 0.03141,1.86453c-0.35244,1.87545 -0.95232,3.77669 -1.5234,5.57872c-0.30672,0.96784 -0.73626,1.88818 -1.09384,2.83273c-0.19775,0.52232 -0.29408,1.11255 -0.59292,1.56802c-0.14876,0.22673 -0.57382,0.62037 -0.68129,0.3619c-0.1352,-0.32514 0.39995,-0.59164 0.43558,-0.94638c0.07355,-0.73231 -0.0952,-1.47751 -0.12561,-2.21529c-0.14349,-3.48207 0.9392,-6.66504 1.78377,-9.95445c0.57632,-0.16072 1.16033,-0.2578 1.72083,-0.07767z" data-paper-data="{&quot;noHover&quot;:false,&quot;origItem&quot;:[&quot;Path&quot;,{&quot;applyMatrix&quot;:true,&quot;segments&quot;:[[[309.69686,131.88636],[0.584,-0.1301],[-1.01689,3.24028]],[[307.41808,141.63907],[0.04036,-3.48479],[-0.00855,0.73835]],[[307.4183,143.8543],[0.11208,-0.72741],[-0.05429,0.35236]],[[306.93461,144.7768],[-0.11786,-0.33182],[0.09369,0.26378]],[[307.62992,144.45008],[-0.16051,0.21856],[0.32244,-0.43907]],[[308.30196,142.91489],[-0.22502,0.51116],[0.40691,-0.92437]],[[309.52571,140.14349],[-0.35734,0.95032],[0.66533,-1.7694]],[[311.32403,134.74532],[-0.45087,1.85425],[0.14551,-0.59841]],[[311.39777,132.88504],[-0.01806,0.62038],[0.00958,-0.32917]],[[311.40696,131.89703],[0.27548,0.10487],[-0.55022,-0.20944]]],&quot;closed&quot;:true,&quot;fillColor&quot;:[0,0,0],&quot;strokeWidth&quot;:0.5}]}" fill="#ffffff" stroke-width="0.25"/></g></g></g></svg>