<svg version="1.1" xmlns="http://www.w3.org/2000/svg" xmlns:xlink="http://www.w3.org/1999/xlink" width="130.48872" height="34.43266" viewBox="0,0,130.48872,34.43266"><defs><linearGradient x1="179.74732" y1="333.12984" x2="179.74732" y2="302.78369" gradientUnits="userSpaceOnUse" id="color-1"><stop offset="0" stop-color="#c22929"/><stop offset="1" stop-color="#ff4d4d"/></linearGradient></defs><g transform="translate(-114.75564,-302.78367)"><g data-paper-data="{&quot;isPaintingLayer&quot;:true}" fill-rule="nonzero" stroke-linecap="butt" stroke-linejoin="miter" stroke-miterlimit="10" stroke-dasharray="" stroke-dashoffset="0" style="mix-blend-mode: normal"><path d="M242.2122,316.03545c0,5.41312 3.03216,10.69114 3.03216,13.79816c0,3.14092 -2.16015,7.38272 -5.91253,7.38272c-22.74624,0 -103.99923,0 -117.24322,0c-3.56125,0 -6.82758,-3.45517 -6.82758,-7.69634c0,-4.76426 3.03215,-9.57954 3.03215,-12.54376c0,-3.6857 0.37265,-10.10607 4.30081,-10.10607c13.88261,0 93.59257,0 115.47448,0c3.44006,0 4.14378,4.92753 4.14378,9.16528z" data-paper-data="{&quot;index&quot;:null}" fill="#8d2626" stroke="none" stroke-width="0"/><path d="M244.73898,311.32178c0,5.41312 0,11.31832 0,14.42535c0,3.14092 -2.16016,7.38274 -5.91253,7.38274c-22.74624,0 -103.99923,0 -117.24321,0c-3.56125,0 -6.82759,-3.45517 -6.82759,-7.69634c0,-4.76426 0,-10.52033 0,-13.48455c0,-3.6857 3.40481,-9.16531 7.33293,-9.16531c13.8826,0 93.59254,0 115.47448,0c3.44006,0 7.17593,4.30035 7.17593,8.53811z" data-paper-data="{&quot;index&quot;:null}" fill="url(#color-1)" stroke="none" stroke-width="0"/><text transform="translate(160.47537,322.98521) scale(0.42552,0.34097)" font-size="40" xml:space="preserve" fill="#ffffff" fill-rule="nonzero" stroke="#4e4e4e" stroke-width="2.5" stroke-linecap="butt" stroke-linejoin="miter" stroke-miterlimit="10" stroke-dasharray="" stroke-dashoffset="0" font-family="Marker" font-weight="normal" text-anchor="start" style="mix-blend-mode: normal"><tspan x="0" dy="0">SHOP</tspan></text></g></g></svg>