<svg version="1.1" xmlns="http://www.w3.org/2000/svg" xmlns:xlink="http://www.w3.org/1999/xlink" width="117.66855" height="35.31827" viewBox="0,0,117.66855,35.31827"><defs><linearGradient x1="179.77213" y1="333.46751" x2="179.77213" y2="302.34088" gradientUnits="userSpaceOnUse" id="color-1"><stop offset="0" stop-color="#347ef7"/><stop offset="1" stop-color="#4d5aff"/></linearGradient></defs><g transform="translate(-121.16572,-302.34087)"><g data-paper-data="{&quot;isPaintingLayer&quot;:true}" fill-rule="nonzero" stroke-linecap="butt" stroke-linejoin="miter" stroke-miterlimit="10" stroke-dasharray="" stroke-dashoffset="0" style="mix-blend-mode: normal"><path d="M236.10003,315.93348c0,5.55234 2.73425,10.9661 2.73425,14.15306c0,3.22167 -1.94793,7.5726 -5.33163,7.5726c-20.51149,0 -93.78163,0 -105.72443,0c-3.21138,0 -6.15679,-3.54403 -6.15679,-7.89427c0,-4.88679 2.73425,-9.82592 2.73425,-12.86639c0,-3.7805 0.33604,-10.366 3.87826,-10.366c12.51867,0 84.39737,0 104.12945,0c3.10208,0 3.73665,5.05426 3.73665,9.401z" data-paper-data="{&quot;index&quot;:null}" fill="#3649c7" stroke="none" stroke-width="0"/><path d="M238.37857,311.09857c0,5.55234 0,11.6094 0,14.79633c0,3.22167 -1.94793,7.5726 -5.33163,7.5726c-20.51149,0 -93.78163,0 -105.72443,0c-3.21138,0 -6.15679,-3.54403 -6.15679,-7.89427c0,-4.88679 0,-10.79092 0,-13.83136c0,-3.7805 3.07029,-9.401 6.6125,-9.401c12.51867,0 84.39737,0 104.12945,0c3.10208,0 6.47092,4.41098 6.47092,8.7577z" data-paper-data="{&quot;index&quot;:null}" fill="url(#color-1)" stroke="none" stroke-width="0"/><text transform="translate(145.70366,322.34229) scale(0.50558,0.38864)" font-size="40" xml:space="preserve" fill="#ffffff" fill-rule="nonzero" stroke="#4e4e4e" stroke-width="2.5" stroke-linecap="butt" stroke-linejoin="miter" stroke-miterlimit="10" stroke-dasharray="" stroke-dashoffset="0" font-family="Marker" font-weight="normal" text-anchor="start" style="mix-blend-mode: normal"><tspan x="0" dy="0">&lt; BACK</tspan></text></g></g></svg>