<svg version="1.1" xmlns="http://www.w3.org/2000/svg" xmlns:xlink="http://www.w3.org/1999/xlink" width="82.62027" height="69.01824" viewBox="0,0,82.62027,69.01824"><g transform="translate(-277.18134,-144.0082)"><g data-paper-data="{&quot;isPaintingLayer&quot;:true}" fill-opacity="0.24314" fill="#ff0000" fill-rule="nonzero" stroke="none" stroke-width="0.5" stroke-linecap="butt" stroke-linejoin="miter" stroke-miterlimit="10" stroke-dasharray="" stroke-dashoffset="0" style="mix-blend-mode: normal"><path d="M283.13246,212.89737c-1.89737,0.63246 -2.52982,-1.26491 -2.52982,-1.26491l-0.73509,-2.20527c-3.21555,-9.7413 -3.39846,-21.79387 -1.32357,-31.8443c0.49064,-2.37659 1.47177,-4.63149 2,-7c0.36669,-1.64419 0.64104,-6.06892 1.08774,-7.29669c0.4311,-1.18489 1.48284,-2.04995 2.07165,-3.1649c0.99901,-1.89166 1.02537,-4.20228 2.04344,-6.08376c0.08985,-0.16605 4.95285,-6.1596 5.09234,-6.31775c1.07331,-1.21694 1.86279,-2.87012 3.34017,-3.54114c0.55021,-0.2499 7.94816,-0.15281 8.88929,-0.1475c0.31203,0.01859 8.12518,0.47812 8.3062,0.51369c2.6238,0.51553 4.97533,2.04456 7.5943,2.58408c4.23199,0.8718 8.02164,1.31367 11.97644,3.46413c0.17561,0.09549 6.40285,4.56059 6.69733,4.76565c3.29536,2.29476 7.20314,4.32614 10.02496,7.22516c0.07445,0.07649 4.80967,6.37669 4.96798,6.5873c4.81594,6.40691 9.63035,15.41912 5.74832,23.4997c-1.05128,4.86182 -1.64181,10.36232 -5.63655,13.87632c-1.0959,0.96401 -2.55584,1.41044 -3.82504,2.13116c-1.30212,0.73941 -2.4451,1.85117 -3.88867,2.24909c-3.00323,0.82784 -8.3795,0.07257 -11.53387,0.07257c-1.17891,0 -6.06398,0.00221 -6.2365,-0.01403c-3.61088,-0.33991 -6.8376,-2.28925 -10.27188,-3.03608c-2.71332,-0.59005 -5.67791,-0.0732 -8.25698,-1.10213c-4.72957,-1.88688 -9.96349,-6.39678 -14.03463,-9.44776c-0.88,-0.66 -6.61022,-4.88583 -6.98885,-5.50557c-1.20631,-1.97444 0.86992,-7.1064 2.47845,-8.40534c0.82009,-0.66224 2.15188,-0.37406 3,-1c0.53261,-0.39308 0.33819,-1.34946 0.81105,-1.8127c2.42293,-2.37363 5.8119,-3.22316 8.3934,-5.38677c3.89494,-3.26442 8.63515,-7.35433 13.52639,-9.20381c1.45675,-0.55083 6.94607,-0.57694 8.34494,0.06642c0.99206,0.45627 1.53849,1.55956 2.40405,2.22527c0.7873,0.60552 2.08526,0.68388 2.53188,1.57102c0.60892,1.20952 0.19913,2.70097 0.2987,4.05146c0,2.3051 0.51236,5.23031 -0.0535,7.45951c-0.48803,1.92257 -2.28306,3.28347 -3.03231,5.12006c-0.32815,0.80438 0.29534,1.94946 -0.2917,2.58985c-0.80489,0.87805 -2.36952,0.6132 -3.31208,1.34149c-0.66639,0.5149 -0.52966,1.76926 -1.25894,2.19039c-0.62973,0.36365 -4.04196,0.2987 -5.05146,0.2987c-1.28388,0 -4.58329,0.11273 -5.41421,-0.58579c-0.68485,-0.57572 -0.01861,-1.85619 -0.43355,-2.64885c-0.43725,-0.83529 -1.61193,-1.14076 -2,-2c-0.37999,-0.84135 -0.15224,-1.84218 -0.15224,-2.76537c0,-4.57596 1.28378,-6.74036 6,-7c0,0 2,0 2,2c0,2 -2,2 -2,2c-2.49731,-0.30794 -2,0.86955 -2,3c0,0.41466 -0.35792,0.87458 -0.15224,1.23463c0.46765,0.81865 1.60076,1.14589 2,2c0.2003,0.4285 -0.52582,0.88724 -0.43355,1.35115c0.05387,0.27084 0.31647,-0.52477 0.58579,-0.58579c0.65019,-0.14729 1.33333,0 2,0c0.66667,0 1.33673,-0.06719 2,0c0.3298,0.03341 0.70144,0.51966 0.94854,0.2987c0.48588,-0.4345 0.21203,-1.42882 0.74106,-1.80961c0.74869,-0.5389 1.98966,-0.0557 2.68792,-0.65851c0.36334,-0.31367 -0.46669,-0.96318 -0.2917,-1.41015c0.69405,-1.77281 2.51711,-3.0302 2.96769,-4.87994c0.47041,-1.9312 -0.0535,-4.52241 -0.0535,-6.54049c0.09957,-0.64951 0.58872,-1.3589 0.2987,-1.94854c-0.22502,-0.45749 -1.05421,-0.13129 -1.46812,-0.42898c-0.64589,-0.46453 -0.90571,-1.37908 -1.59595,-1.77473c-0.69307,-0.39727 -4.80333,-0.30227 -5.65506,0.06642c-4.42203,1.91417 -8.50895,5.45158 -12.13047,8.45305c-2.23925,1.85586 -5.92671,2.88533 -7.94974,4.95637c-0.57987,0.59363 -0.52854,1.6848 -1.18895,2.1873c-0.83887,0.63828 -2.12706,0.40916 -3,1c-0.40815,0.27625 -0.31464,0.9362 -0.52155,1.38352c-0.3396,0.73418 -1.58531,1.65279 -1,2.21115c1.71456,1.63559 3.91549,2.67269 5.81115,4.09443c3.82363,2.87009 8.73673,7.15215 13.16537,8.95224c3.04549,1.23789 4.3351,0.18371 7.57651,0.88907c3.30772,0.71979 6.42287,2.65946 9.89462,2.97273c1.9134,0.17265 3.84232,-0.01403 5.7635,-0.01403c2.72731,0 7.82331,0.80921 10.46613,0.07257c1.12674,-0.31406 1.95787,-1.28275 2.97127,-1.86687c1.04596,-0.60289 2.27525,-0.91851 3.20248,-1.69166c3.32445,-2.77201 3.57795,-8.28829 4.47598,-12.1849c3.49603,-6.6691 -1.23833,-14.5215 -5.17667,-19.75347c-1.5535,-2.06377 -2.84504,-4.34942 -4.64143,-6.20564c-2.616,-2.70313 -6.37851,-4.59639 -9.44065,-6.72874c-2.12822,-1.48202 -4.04405,-3.29528 -6.3224,-4.53416c-3.63036,-1.97405 -7.00676,-2.24921 -10.88008,-3.06201c-2.60268,-0.54616 -4.94154,-2.06261 -7.55102,-2.57533c-2.51131,-0.49342 -5.11057,-0.28762 -7.66531,-0.44077c-1.31403,-0.00694 -2.62859,0.0172 -3.94209,-0.02082c-1.05752,-0.03061 -2.20344,-0.61857 -3.16849,-0.18502c-0.95489,0.42899 -1.27861,1.658 -1.93156,2.47624c-1.52255,1.90799 -3.48403,3.51469 -4.643,5.66303c-0.98619,1.82808 -0.99413,4.07554 -1.95656,5.91624c-0.52957,1.01283 -1.52764,1.76473 -1.92835,2.8351c-0.79061,2.1119 -0.42293,4.50201 -0.91226,6.70331c-0.52659,2.36888 -1.51056,4.62317 -2,7c-1.91973,9.32271 -1.83416,20.72207 1.20626,29.74517l0.73509,2.20527c0,0 0.63246,1.89737 -1.26491,2.52982z"/></g></g></svg>