<svg version="1.1" xmlns="http://www.w3.org/2000/svg" xmlns:xlink="http://www.w3.org/1999/xlink" width="24.36543" height="49.46927" viewBox="0,0,24.36543,49.46927"><g transform="translate(-166.51433,-269.66291)"><g data-paper-data="{&quot;isPaintingLayer&quot;:true}" fill-rule="nonzero" stroke="none" stroke-linecap="butt" stroke-linejoin="miter" stroke-miterlimit="10" stroke-dasharray="" stroke-dashoffset="0" style="mix-blend-mode: normal"><path d="M190.78358,296.19623c-0.73999,1.80211 -4.1711,1.82674 -5.03853,0.14197c-0.14372,-0.09351 -0.27448,-0.20492 -0.38924,-0.33091c-1.17099,-0.01662 -2.47035,-0.03505 -3.70112,-0.0525c2.46397,1.78825 4.62508,4.69592 4.51792,5.54518c-0.40923,3.24305 -5.20239,0.18075 -7.79686,-2.1759c0.02094,0.90413 0.07602,1.79149 0.18076,2.65106c0.11642,0.95533 0.80165,1.85814 0.62758,2.80335c-0.09625,0.52256 -0.29719,1.02689 -0.56205,1.51018c0.64472,0.93146 1.36194,1.81832 1.7505,2.90736c0.29235,0.81937 -0.04858,1.77523 0.03907,2.65418c0.11749,1.17826 0.38279,2.33094 0.57417,3.49639l0.0176,1.92014c0,0 -0.01127,1.87155 -1.66269,1.86546c-1.65144,-0.00609 -1.64017,-1.87766 -1.64017,-1.87766l0.03648,-1.21987c-0.20567,-1.28744 -0.49958,-2.56039 -0.61705,-3.86231c-0.05505,-0.6101 0.31162,-1.27207 0.10278,-1.83722c-0.1766,-0.4779 -0.45519,-0.88815 -0.76024,-1.28083c-0.15843,0.17147 -0.31225,0.33748 -0.45777,0.49775c-1.92624,2.12163 -4.08825,3.76609 -6.02948,5.90421l-1.83589,0.52219c0,0 -1.65125,-0.02342 -1.6247,-1.89485c0.02535,-1.78687 1.5319,-1.84624 1.66799,-1.84797c1.80565,-1.88293 3.77266,-3.4339 5.52439,-5.36333c0.10542,-0.11612 2.16925,-2.2809 2.21082,-2.63712c0.07147,-0.61239 -0.54165,-1.09784 -0.62971,-1.70681c-0.12102,-0.83695 0.00653,-1.6972 0.01479,-2.54577c0.00684,-0.70241 0.01485,-1.40483 0.02371,-2.10725c0.09092,-0.47439 0.14854,-0.96125 0.17026,-1.45816c0.04098,-0.93756 -0.04851,-1.85061 -0.25239,-2.72159c0.02589,-0.00698 0.05177,-0.01394 0.07767,-0.0209l-0.00001,0.00001c0,0 0.02335,-0.00627 0.06508,-0.01409c0.02244,-1.44591 0.04568,-2.8918 0.06679,-4.33765c-0.78267,-0.05344 -1.53841,-0.29148 -2.14771,-0.77331c-0.86958,-0.68768 -0.3509,-2.3761 -0.43301,-3.57586c-0.05944,-0.86848 0.16815,-5.67346 0.2132,-5.88985c0.33197,-1.5948 0.9819,-3.33512 1.61858,-5.03906c-0.30566,-0.13913 -0.60483,-0.42134 -0.82829,-0.94799c-0.71472,-1.68432 0.77408,-2.5003 0.77408,-2.5003l2.07289,-0.91693c0.09142,0.0013 0.20037,0.00243 0.32378,0.00364c0.1509,-0.02728 0.3175,-0.02871 0.50083,0.00506c1.58863,0.01775 4.32328,0.07312 4.75941,0.42384c0.91345,0.73457 1.07136,2.27404 1.28048,3.52237c0.45525,2.71746 -0.66793,4.43452 -1.50349,6.87267c-0.89904,2.62349 -0.63894,2.78581 -2.18235,5.50576c-0.40363,0.71132 -0.71291,1.63311 -1.1983,2.27205c0.06376,0.29295 0.06059,0.51591 0.06059,0.51591c-0.01546,1.08956 -0.07081,2.21921 -0.13557,3.36732c2.34101,0.03321 4.68204,0.06643 7.02305,0.09963l1.9815,0.02811c0,0 1.13237,0.01606 1.50658,1.08434c1.20946,0.6416 2.02884,1.87692 1.64328,2.8159zM178.62393,273.08624c-1.06276,3.22553 -2.3271,6.23554 -2.4169,9.7194c-0.01902,0.73815 0.09118,1.48926 -0.0312,2.21501c-0.05929,0.35155 -0.60987,0.58209 -0.49673,0.91555c0.08993,0.26508 0.53628,-0.10056 0.69988,-0.31682c0.32864,-0.43445 0.4615,-1.01758 0.69375,-1.5255c0.41999,-0.91851 0.89215,-1.80861 1.26294,-2.75376c0.69037,-1.75978 1.39759,-3.52445 1.87471,-5.37212c0.15398,-0.59629 0.07327,-1.23899 0.10012,-1.85905c0.01425,-0.329 0.29716,-0.87901 0.0232,-0.98779c-0.5472,-0.21723 -1.124,-0.15673 -1.70978,-0.03493z" fill="#000000" stroke-width="0.5"/><path d="M180.35048,273.07407c0.27396,0.10877 -0.00649,0.65974 -0.02073,0.98873c-0.02686,0.62006 0.06058,1.26618 -0.0934,1.86246c-0.47713,1.84767 -1.20286,3.70451 -1.89323,5.4643c-0.37078,0.94515 -0.86093,1.83469 -1.28091,2.7532c-0.23225,0.50791 -0.36785,1.09038 -0.69649,1.52483c-0.1636,0.21626 -0.61404,0.58059 -0.70397,0.3155c-0.11315,-0.33346 0.43864,-0.56357 0.49792,-0.91512c0.12239,-0.72575 0.00386,-1.48057 0.02289,-2.21873c0.08979,-3.48386 1.38301,-6.58728 2.44576,-9.81281c0.58579,-0.12181 1.17497,-0.1796 1.72217,0.03763z" data-paper-data="{&quot;noHover&quot;:false,&quot;origItem&quot;:[&quot;Path&quot;,{&quot;applyMatrix&quot;:true,&quot;segments&quot;:[[[309.69686,131.88636],[0.584,-0.1301],[-1.01689,3.24028]],[[307.41808,141.63907],[0.04036,-3.48479],[-0.00855,0.73835]],[[307.4183,143.8543],[0.11208,-0.72741],[-0.05429,0.35236]],[[306.93461,144.7768],[-0.11786,-0.33182],[0.09369,0.26378]],[[307.62992,144.45008],[-0.16051,0.21856],[0.32244,-0.43907]],[[308.30196,142.91489],[-0.22502,0.51116],[0.40691,-0.92437]],[[309.52571,140.14349],[-0.35734,0.95032],[0.66533,-1.7694]],[[311.32403,134.74532],[-0.45087,1.85425],[0.14551,-0.59841]],[[311.39777,132.88504],[-0.01806,0.62038],[0.00958,-0.32917]],[[311.40696,131.89703],[0.27548,0.10487],[-0.55022,-0.20944]]],&quot;closed&quot;:true,&quot;fillColor&quot;:[0,0,0],&quot;strokeWidth&quot;:0.5}]}" fill="#ffffff" stroke-width="0.25"/></g></g></svg>