<svg version="1.1" xmlns="http://www.w3.org/2000/svg" xmlns:xlink="http://www.w3.org/1999/xlink" width="59.59152" height="14.85909" viewBox="0,0,59.59152,14.85909"><defs><linearGradient x1="179.88461" y1="325.66606" x2="179.88461" y2="312.57046" gradientUnits="userSpaceOnUse" id="color-1"><stop offset="0" stop-color="#53f733"/><stop offset="1" stop-color="#8bff4d"/></linearGradient></defs><g transform="translate(-150.20424,-312.57046)"><g data-paper-data="{&quot;isPaintingLayer&quot;:true}" fill-rule="nonzero" stroke-linecap="butt" stroke-linejoin="miter" stroke-miterlimit="10" stroke-dasharray="" stroke-dashoffset="0" style="mix-blend-mode: normal"><path d="M208.41104,318.28914c0,2.33598 1.38472,4.61366 1.38472,5.95447c0,1.35543 -0.9865,3.18594 -2.70013,3.18594c-10.38774,0 -47.49432,0 -53.54258,0c-1.62635,0 -3.11802,-1.49105 -3.11802,-3.32128c0,-2.05597 1.38472,-4.13396 1.38472,-5.41314c0,-1.59053 0.17018,-4.36118 1.96409,-4.36118c6.3399,0 42.74181,0 52.73483,0c1.571,0 1.89238,2.12643 1.89238,3.95519z" data-paper-data="{&quot;index&quot;:null}" fill="#4ec736" stroke="none" stroke-width="0"/><path d="M209.56497,316.255c0,2.33598 0,4.88431 0,6.22512c0,1.35543 -0.9865,3.18595 -2.70013,3.18595c-10.38774,0 -47.49432,0 -53.54258,0c-1.62635,0 -3.11802,-1.49105 -3.11802,-3.32128c0,-2.05597 0,-4.53995 0,-5.81913c0,-1.59053 1.5549,-3.9552 3.3488,-3.9552c6.3399,0 42.7418,0 52.73483,0c1.571,0 3.2771,1.85578 3.2771,3.68454z" data-paper-data="{&quot;index&quot;:null}" fill="url(#color-1)" stroke="none" stroke-width="0"/><text transform="translate(171.57434,321.28824) scale(0.18363,0.14714)" font-size="40" xml:space="preserve" fill="#ffffff" fill-rule="nonzero" stroke="#4e4e4e" stroke-width="2.5" stroke-linecap="butt" stroke-linejoin="miter" stroke-miterlimit="10" stroke-dasharray="" stroke-dashoffset="0" font-family="Marker" font-weight="normal" text-anchor="start" style="mix-blend-mode: normal"><tspan x="0" dy="0">PLAY</tspan></text></g></g></svg>